<svg width="3000" height="1080" viewBox="0 0 3000 1080" fill="none" xmlns="http://www.w3.org/2000/svg">
<g clip-path="url(#clip0_3_18)">
<g filter="url(#filter0_d_3_18)">
<ellipse cx="875.556" cy="651.86" rx="148.823" ry="148.823" transform="rotate(135 875.556 651.86)" fill="black"/>
<ellipse cx="651.86" cy="428.163" rx="148.823" ry="148.823" transform="rotate(135 651.86 428.163)" fill="black"/>
<ellipse cx="651.86" cy="875.556" rx="148.823" ry="148.823" transform="rotate(135 651.86 875.556)" fill="black"/>
<ellipse cx="428.164" cy="651.86" rx="148.823" ry="148.823" transform="rotate(135 428.164 651.86)" fill="black"/>
<ellipse cx="428.163" cy="204.467" rx="148.823" ry="148.823" transform="rotate(135 428.163 204.467)" fill="black"/>
<ellipse cx="204.467" cy="428.163" rx="148.823" ry="148.823" transform="rotate(135 204.467 428.163)" fill="black"/>
</g>
<mask id="path-7-outside-1_3_18" maskUnits="userSpaceOnUse" x="1231" y="82" width="1595" height="906" fill="black">
<rect fill="white" x="1231" y="82" width="1595" height="906"/>
<path d="M1300.69 443V152.091H1489.9V196.267H1353.39V275.244H1480.1V319.42H1353.39V398.824H1491.03V443H1300.69ZM1680.45 351.239V224.818H1731.87V443H1682.01V404.222H1679.74C1674.82 416.437 1666.72 426.428 1655.45 434.193C1644.28 441.958 1630.5 445.841 1614.12 445.841C1599.82 445.841 1587.18 442.669 1576.19 436.324C1565.3 429.884 1556.78 420.557 1550.62 408.341C1544.47 396.03 1541.39 381.163 1541.39 363.739V224.818H1592.81V355.784C1592.81 369.61 1596.6 380.595 1604.17 388.739C1611.75 396.883 1621.69 400.955 1634 400.955C1641.58 400.955 1648.92 399.108 1656.02 395.415C1663.12 391.722 1668.95 386.229 1673.49 378.938C1678.13 371.551 1680.45 362.318 1680.45 351.239ZM1957.19 282.489L1910.32 287.602C1908.99 282.867 1906.67 278.417 1903.36 274.25C1900.14 270.083 1895.78 266.722 1890.29 264.165C1884.8 261.608 1878.07 260.33 1870.12 260.33C1859.42 260.33 1850.42 262.65 1843.13 267.29C1835.93 271.93 1832.38 277.943 1832.48 285.33C1832.38 291.674 1834.7 296.835 1839.44 300.812C1844.27 304.79 1852.22 308.057 1863.3 310.614L1900.52 318.568C1921.16 323.019 1936.5 330.074 1946.54 339.733C1956.67 349.392 1961.78 362.034 1961.88 377.659C1961.78 391.39 1957.76 403.511 1949.81 414.023C1941.95 424.439 1931.01 432.583 1916.99 438.455C1902.98 444.326 1886.88 447.261 1868.7 447.261C1841.99 447.261 1820.5 441.674 1804.21 430.5C1787.92 419.231 1778.21 403.559 1775.09 383.483L1825.23 378.653C1827.5 388.502 1832.33 395.936 1839.72 400.955C1847.11 405.973 1856.72 408.483 1868.56 408.483C1880.77 408.483 1890.57 405.973 1897.96 400.955C1905.44 395.936 1909.18 389.733 1909.18 382.347C1909.18 376.097 1906.77 370.936 1901.94 366.864C1897.2 362.792 1889.81 359.667 1879.78 357.489L1842.56 349.676C1821.63 345.32 1806.15 337.981 1796.11 327.659C1786.07 317.242 1781.1 304.08 1781.2 288.17C1781.1 274.723 1784.75 263.076 1792.13 253.227C1799.62 243.284 1809.99 235.614 1823.24 230.216C1836.6 224.723 1851.98 221.977 1869.41 221.977C1894.98 221.977 1915.1 227.422 1929.78 238.312C1944.55 249.203 1953.69 263.928 1957.19 282.489ZM2051.15 374.534L2051.01 312.46H2059.25L2137.66 224.818H2197.75L2101.3 332.205H2090.64L2051.15 374.534ZM2004.28 443V152.091H2055.7V443H2004.28ZM2141.21 443L2070.19 343.71L2104.85 307.489L2202.72 443H2141.21ZM2294.8 447.403C2280.97 447.403 2268.52 444.941 2257.44 440.017C2246.46 434.998 2237.74 427.612 2231.3 417.858C2224.96 408.104 2221.79 396.078 2221.79 381.778C2221.79 369.468 2224.06 359.288 2228.61 351.239C2233.15 343.189 2239.35 336.75 2247.21 331.92C2255.07 327.091 2263.93 323.445 2273.78 320.983C2283.72 318.426 2293.99 316.58 2304.6 315.443C2317.38 314.117 2327.75 312.934 2335.71 311.892C2343.66 310.756 2349.44 309.051 2353.04 306.778C2356.73 304.411 2358.58 300.765 2358.58 295.841V294.989C2358.58 284.288 2355.4 276.002 2349.06 270.131C2342.71 264.259 2333.58 261.324 2321.64 261.324C2309.05 261.324 2299.06 264.07 2291.67 269.562C2284.38 275.055 2279.46 281.542 2276.9 289.023L2228.89 282.205C2232.68 268.947 2238.93 257.867 2247.64 248.966C2256.35 239.97 2267 233.246 2279.6 228.795C2292.19 224.25 2306.11 221.977 2321.36 221.977C2331.87 221.977 2342.34 223.208 2352.75 225.67C2363.17 228.133 2372.69 232.205 2381.3 237.886C2389.92 243.473 2396.83 251.097 2402.04 260.756C2407.35 270.415 2410 282.489 2410 296.977V443H2360.57V413.028H2358.86C2355.74 419.089 2351.33 424.771 2345.65 430.074C2340.06 435.282 2333.01 439.496 2324.49 442.716C2316.06 445.841 2306.16 447.403 2294.8 447.403ZM2308.15 409.619C2318.47 409.619 2327.42 407.583 2335 403.511C2342.57 399.345 2348.4 393.852 2352.47 387.034C2356.64 380.216 2358.72 372.782 2358.72 364.733V339.023C2357.11 340.348 2354.36 341.58 2350.48 342.716C2346.69 343.852 2342.43 344.847 2337.7 345.699C2332.96 346.551 2328.27 347.309 2323.63 347.972C2318.99 348.634 2314.97 349.203 2311.56 349.676C2303.89 350.718 2297.02 352.422 2290.96 354.79C2284.9 357.157 2280.12 360.472 2276.62 364.733C2273.11 368.9 2271.36 374.297 2271.36 380.926C2271.36 390.396 2274.82 397.545 2281.73 402.375C2288.64 407.205 2297.45 409.619 2308.15 409.619ZM2542.67 446.835C2525.53 446.835 2510.19 442.432 2496.64 433.625C2483.1 424.818 2472.4 412.034 2464.54 395.273C2456.68 378.511 2452.75 358.152 2452.75 334.193C2452.75 309.951 2456.73 289.496 2464.68 272.83C2472.73 256.068 2483.58 243.426 2497.21 234.903C2510.85 226.286 2526.05 221.977 2542.81 221.977C2555.59 221.977 2566.11 224.155 2574.34 228.511C2582.58 232.773 2589.12 237.934 2593.95 243.994C2598.78 249.96 2602.52 255.595 2605.17 260.898H2607.3V152.091H2658.86V443H2608.29V408.625H2605.17C2602.52 413.928 2598.68 419.562 2593.66 425.528C2588.64 431.4 2582.01 436.419 2573.78 440.585C2565.54 444.752 2555.17 446.835 2542.67 446.835ZM2557.01 404.648C2567.9 404.648 2577.18 401.712 2584.86 395.841C2592.53 389.875 2598.35 381.589 2602.33 370.983C2606.3 360.377 2608.29 348.019 2608.29 333.909C2608.29 319.799 2606.3 307.536 2602.33 297.119C2598.44 286.703 2592.67 278.606 2585 272.83C2577.42 267.053 2568.09 264.165 2557.01 264.165C2545.56 264.165 2535.99 267.148 2528.32 273.114C2520.65 279.08 2514.87 287.318 2510.99 297.83C2507.11 308.341 2505.17 320.367 2505.17 333.909C2505.17 347.545 2507.11 359.714 2510.99 370.415C2514.97 381.021 2520.79 389.402 2528.46 395.557C2536.23 401.617 2545.75 404.648 2557.01 404.648ZM2713.65 443V224.818H2765.08V443H2713.65ZM2739.51 193.852C2731.36 193.852 2724.36 191.153 2718.48 185.756C2712.61 180.263 2709.68 173.682 2709.68 166.011C2709.68 158.246 2712.61 151.665 2718.48 146.267C2724.36 140.775 2731.36 138.028 2739.51 138.028C2747.75 138.028 2754.75 140.775 2760.53 146.267C2766.4 151.665 2769.34 158.246 2769.34 166.011C2769.34 173.682 2766.4 180.263 2760.53 185.756C2754.75 191.153 2747.75 193.852 2739.51 193.852ZM1287.91 680.267V636.091H1520.01V680.267H1430.1V927H1377.82V680.267H1287.91ZM1627.43 931.261C1605.56 931.261 1586.67 926.716 1570.76 917.625C1554.94 908.439 1542.77 895.466 1534.25 878.705C1525.73 861.848 1521.47 842.009 1521.47 819.188C1521.47 796.744 1525.73 777.047 1534.25 760.097C1542.87 743.051 1554.9 729.794 1570.33 720.324C1585.77 710.759 1603.9 705.977 1624.73 705.977C1638.18 705.977 1650.87 708.155 1662.8 712.511C1674.83 716.773 1685.44 723.402 1694.62 732.398C1703.9 741.394 1711.19 752.852 1716.5 766.773C1721.8 780.598 1724.45 797.076 1724.45 816.205V831.972H1545.62V797.312H1675.16C1675.07 787.464 1672.94 778.705 1668.77 771.034C1664.6 763.269 1658.78 757.161 1651.3 752.71C1643.91 748.259 1635.29 746.034 1625.44 746.034C1614.93 746.034 1605.7 748.591 1597.75 753.705C1589.79 758.723 1583.59 765.352 1579.14 773.591C1574.78 781.735 1572.56 790.684 1572.46 800.438V830.693C1572.46 843.383 1574.78 854.273 1579.42 863.364C1584.06 872.36 1590.55 879.273 1598.88 884.102C1607.22 888.837 1616.97 891.205 1628.14 891.205C1635.62 891.205 1642.4 890.163 1648.46 888.08C1654.52 885.902 1659.77 882.729 1664.22 878.562C1668.67 874.396 1672.04 869.235 1674.31 863.08L1722.32 868.477C1719.29 881.167 1713.51 892.246 1704.99 901.716C1696.56 911.091 1685.77 918.383 1672.6 923.591C1659.44 928.705 1644.38 931.261 1627.43 931.261ZM1863.12 931.261C1841.34 931.261 1822.64 926.479 1807.01 916.915C1791.48 907.35 1779.5 894.14 1771.08 877.284C1762.74 860.333 1758.58 840.826 1758.58 818.761C1758.58 796.602 1762.84 777.047 1771.36 760.097C1779.88 743.051 1791.91 729.794 1807.44 720.324C1823.07 710.759 1841.53 705.977 1862.84 705.977C1880.55 705.977 1896.22 709.244 1909.86 715.778C1923.59 722.218 1934.52 731.356 1942.67 743.193C1950.81 754.936 1955.45 768.667 1956.59 784.386H1907.44C1905.45 773.875 1900.72 765.116 1893.24 758.108C1885.85 751.006 1875.95 747.455 1863.55 747.455C1853.04 747.455 1843.8 750.295 1835.85 755.977C1827.89 761.564 1821.69 769.614 1817.24 780.125C1812.89 790.636 1810.71 803.231 1810.71 817.909C1810.71 832.777 1812.89 845.561 1817.24 856.261C1821.6 866.867 1827.71 875.059 1835.57 880.835C1843.52 886.517 1852.85 889.358 1863.55 889.358C1871.12 889.358 1877.89 887.937 1883.86 885.097C1889.92 882.161 1894.99 877.947 1899.06 872.455C1903.13 866.962 1905.93 860.286 1907.44 852.426H1956.59C1955.36 867.862 1950.81 881.545 1942.95 893.477C1935.09 905.314 1924.39 914.595 1910.85 921.318C1897.31 927.947 1881.4 931.261 1863.12 931.261ZM2050.23 799.159V927H1998.81V636.091H2049.1V745.892H2051.65C2056.77 733.581 2064.67 723.875 2075.37 716.773C2086.17 709.576 2099.9 705.977 2116.57 705.977C2131.72 705.977 2144.93 709.15 2156.2 715.494C2167.47 721.839 2176.18 731.119 2182.33 743.335C2188.58 755.551 2191.71 770.466 2191.71 788.08V927H2140.29V796.034C2140.29 781.356 2136.5 769.945 2128.92 761.801C2121.44 753.562 2110.93 749.443 2097.39 749.443C2088.3 749.443 2080.16 751.432 2072.96 755.409C2065.86 759.292 2060.27 764.926 2056.2 772.312C2052.22 779.699 2050.23 788.648 2050.23 799.159ZM2388.87 740.636L2345.69 636.091H2367.42L2395.4 707.682L2423.53 636.091H2445.26L2401.94 740.636H2388.87ZM2339.01 740.636V636.091H2362.73V740.636H2339.01ZM2428.21 740.636V636.091H2451.79V740.636H2428.21ZM2265.43 740.636V645.182H2289.01V740.636H2265.43ZM2233.61 655.835V636.091H2320.83V655.835H2233.61Z"/>
</mask>
<path d="M1300.69 443V152.091H1489.9V196.267H1353.39V275.244H1480.1V319.42H1353.39V398.824H1491.03V443H1300.69ZM1680.45 351.239V224.818H1731.87V443H1682.01V404.222H1679.74C1674.82 416.437 1666.72 426.428 1655.45 434.193C1644.28 441.958 1630.5 445.841 1614.12 445.841C1599.82 445.841 1587.18 442.669 1576.19 436.324C1565.3 429.884 1556.78 420.557 1550.62 408.341C1544.47 396.03 1541.39 381.163 1541.39 363.739V224.818H1592.81V355.784C1592.81 369.61 1596.6 380.595 1604.17 388.739C1611.75 396.883 1621.69 400.955 1634 400.955C1641.58 400.955 1648.92 399.108 1656.02 395.415C1663.12 391.722 1668.95 386.229 1673.49 378.938C1678.13 371.551 1680.45 362.318 1680.45 351.239ZM1957.19 282.489L1910.32 287.602C1908.99 282.867 1906.67 278.417 1903.36 274.25C1900.14 270.083 1895.78 266.722 1890.29 264.165C1884.8 261.608 1878.07 260.33 1870.12 260.33C1859.42 260.33 1850.42 262.65 1843.13 267.29C1835.93 271.93 1832.38 277.943 1832.48 285.33C1832.38 291.674 1834.7 296.835 1839.44 300.812C1844.27 304.79 1852.22 308.057 1863.3 310.614L1900.52 318.568C1921.16 323.019 1936.5 330.074 1946.54 339.733C1956.67 349.392 1961.78 362.034 1961.88 377.659C1961.78 391.39 1957.76 403.511 1949.81 414.023C1941.95 424.439 1931.01 432.583 1916.99 438.455C1902.98 444.326 1886.88 447.261 1868.7 447.261C1841.99 447.261 1820.5 441.674 1804.21 430.5C1787.92 419.231 1778.21 403.559 1775.09 383.483L1825.23 378.653C1827.5 388.502 1832.33 395.936 1839.72 400.955C1847.11 405.973 1856.72 408.483 1868.56 408.483C1880.77 408.483 1890.57 405.973 1897.96 400.955C1905.44 395.936 1909.18 389.733 1909.18 382.347C1909.18 376.097 1906.77 370.936 1901.94 366.864C1897.2 362.792 1889.81 359.667 1879.78 357.489L1842.56 349.676C1821.63 345.32 1806.15 337.981 1796.11 327.659C1786.07 317.242 1781.1 304.08 1781.2 288.17C1781.1 274.723 1784.75 263.076 1792.13 253.227C1799.62 243.284 1809.99 235.614 1823.24 230.216C1836.6 224.723 1851.98 221.977 1869.41 221.977C1894.98 221.977 1915.1 227.422 1929.78 238.312C1944.55 249.203 1953.69 263.928 1957.19 282.489ZM2051.15 374.534L2051.01 312.46H2059.25L2137.66 224.818H2197.75L2101.3 332.205H2090.64L2051.15 374.534ZM2004.28 443V152.091H2055.7V443H2004.28ZM2141.21 443L2070.19 343.71L2104.85 307.489L2202.72 443H2141.21ZM2294.8 447.403C2280.97 447.403 2268.52 444.941 2257.44 440.017C2246.46 434.998 2237.74 427.612 2231.3 417.858C2224.96 408.104 2221.79 396.078 2221.79 381.778C2221.79 369.468 2224.06 359.288 2228.61 351.239C2233.15 343.189 2239.35 336.75 2247.21 331.92C2255.07 327.091 2263.93 323.445 2273.78 320.983C2283.72 318.426 2293.99 316.58 2304.6 315.443C2317.38 314.117 2327.75 312.934 2335.71 311.892C2343.66 310.756 2349.44 309.051 2353.04 306.778C2356.73 304.411 2358.58 300.765 2358.58 295.841V294.989C2358.58 284.288 2355.4 276.002 2349.06 270.131C2342.71 264.259 2333.58 261.324 2321.64 261.324C2309.05 261.324 2299.06 264.07 2291.67 269.562C2284.38 275.055 2279.46 281.542 2276.9 289.023L2228.89 282.205C2232.68 268.947 2238.93 257.867 2247.64 248.966C2256.35 239.97 2267 233.246 2279.6 228.795C2292.19 224.25 2306.11 221.977 2321.36 221.977C2331.87 221.977 2342.34 223.208 2352.75 225.67C2363.17 228.133 2372.69 232.205 2381.3 237.886C2389.92 243.473 2396.83 251.097 2402.04 260.756C2407.35 270.415 2410 282.489 2410 296.977V443H2360.57V413.028H2358.86C2355.74 419.089 2351.33 424.771 2345.65 430.074C2340.06 435.282 2333.01 439.496 2324.49 442.716C2316.06 445.841 2306.16 447.403 2294.8 447.403ZM2308.15 409.619C2318.47 409.619 2327.42 407.583 2335 403.511C2342.57 399.345 2348.4 393.852 2352.47 387.034C2356.64 380.216 2358.72 372.782 2358.72 364.733V339.023C2357.11 340.348 2354.36 341.58 2350.48 342.716C2346.69 343.852 2342.43 344.847 2337.7 345.699C2332.96 346.551 2328.27 347.309 2323.63 347.972C2318.99 348.634 2314.97 349.203 2311.56 349.676C2303.89 350.718 2297.02 352.422 2290.96 354.79C2284.9 357.157 2280.12 360.472 2276.62 364.733C2273.11 368.9 2271.36 374.297 2271.36 380.926C2271.36 390.396 2274.82 397.545 2281.73 402.375C2288.64 407.205 2297.45 409.619 2308.15 409.619ZM2542.67 446.835C2525.53 446.835 2510.19 442.432 2496.64 433.625C2483.1 424.818 2472.4 412.034 2464.54 395.273C2456.68 378.511 2452.75 358.152 2452.75 334.193C2452.75 309.951 2456.73 289.496 2464.68 272.83C2472.73 256.068 2483.58 243.426 2497.21 234.903C2510.85 226.286 2526.05 221.977 2542.81 221.977C2555.59 221.977 2566.11 224.155 2574.34 228.511C2582.58 232.773 2589.12 237.934 2593.95 243.994C2598.78 249.96 2602.52 255.595 2605.17 260.898H2607.3V152.091H2658.86V443H2608.29V408.625H2605.17C2602.52 413.928 2598.68 419.562 2593.66 425.528C2588.64 431.4 2582.01 436.419 2573.78 440.585C2565.54 444.752 2555.17 446.835 2542.67 446.835ZM2557.01 404.648C2567.9 404.648 2577.18 401.712 2584.86 395.841C2592.53 389.875 2598.35 381.589 2602.33 370.983C2606.3 360.377 2608.29 348.019 2608.29 333.909C2608.29 319.799 2606.3 307.536 2602.33 297.119C2598.44 286.703 2592.67 278.606 2585 272.83C2577.42 267.053 2568.09 264.165 2557.01 264.165C2545.56 264.165 2535.99 267.148 2528.32 273.114C2520.65 279.08 2514.87 287.318 2510.99 297.83C2507.11 308.341 2505.17 320.367 2505.17 333.909C2505.17 347.545 2507.11 359.714 2510.99 370.415C2514.97 381.021 2520.79 389.402 2528.46 395.557C2536.23 401.617 2545.75 404.648 2557.01 404.648ZM2713.65 443V224.818H2765.08V443H2713.65ZM2739.51 193.852C2731.36 193.852 2724.36 191.153 2718.48 185.756C2712.61 180.263 2709.68 173.682 2709.68 166.011C2709.68 158.246 2712.61 151.665 2718.48 146.267C2724.36 140.775 2731.36 138.028 2739.51 138.028C2747.75 138.028 2754.75 140.775 2760.53 146.267C2766.4 151.665 2769.34 158.246 2769.34 166.011C2769.34 173.682 2766.4 180.263 2760.53 185.756C2754.75 191.153 2747.75 193.852 2739.51 193.852ZM1287.91 680.267V636.091H1520.01V680.267H1430.1V927H1377.82V680.267H1287.91ZM1627.43 931.261C1605.56 931.261 1586.67 926.716 1570.76 917.625C1554.94 908.439 1542.77 895.466 1534.25 878.705C1525.73 861.848 1521.47 842.009 1521.47 819.188C1521.47 796.744 1525.73 777.047 1534.25 760.097C1542.87 743.051 1554.9 729.794 1570.33 720.324C1585.77 710.759 1603.9 705.977 1624.73 705.977C1638.18 705.977 1650.87 708.155 1662.8 712.511C1674.83 716.773 1685.44 723.402 1694.62 732.398C1703.9 741.394 1711.19 752.852 1716.5 766.773C1721.8 780.598 1724.45 797.076 1724.45 816.205V831.972H1545.62V797.312H1675.16C1675.07 787.464 1672.94 778.705 1668.77 771.034C1664.6 763.269 1658.78 757.161 1651.3 752.71C1643.91 748.259 1635.29 746.034 1625.44 746.034C1614.93 746.034 1605.7 748.591 1597.75 753.705C1589.79 758.723 1583.59 765.352 1579.14 773.591C1574.78 781.735 1572.56 790.684 1572.46 800.438V830.693C1572.46 843.383 1574.78 854.273 1579.42 863.364C1584.06 872.36 1590.55 879.273 1598.88 884.102C1607.22 888.837 1616.97 891.205 1628.14 891.205C1635.62 891.205 1642.4 890.163 1648.46 888.08C1654.52 885.902 1659.77 882.729 1664.22 878.562C1668.67 874.396 1672.04 869.235 1674.31 863.08L1722.32 868.477C1719.29 881.167 1713.51 892.246 1704.99 901.716C1696.56 911.091 1685.77 918.383 1672.6 923.591C1659.44 928.705 1644.38 931.261 1627.43 931.261ZM1863.12 931.261C1841.34 931.261 1822.64 926.479 1807.01 916.915C1791.48 907.35 1779.5 894.14 1771.08 877.284C1762.74 860.333 1758.58 840.826 1758.58 818.761C1758.58 796.602 1762.84 777.047 1771.36 760.097C1779.88 743.051 1791.91 729.794 1807.44 720.324C1823.07 710.759 1841.53 705.977 1862.84 705.977C1880.55 705.977 1896.22 709.244 1909.86 715.778C1923.59 722.218 1934.52 731.356 1942.67 743.193C1950.81 754.936 1955.45 768.667 1956.59 784.386H1907.44C1905.45 773.875 1900.72 765.116 1893.24 758.108C1885.85 751.006 1875.95 747.455 1863.55 747.455C1853.04 747.455 1843.8 750.295 1835.85 755.977C1827.89 761.564 1821.69 769.614 1817.24 780.125C1812.89 790.636 1810.71 803.231 1810.71 817.909C1810.71 832.777 1812.89 845.561 1817.24 856.261C1821.6 866.867 1827.71 875.059 1835.57 880.835C1843.52 886.517 1852.85 889.358 1863.55 889.358C1871.12 889.358 1877.89 887.937 1883.86 885.097C1889.92 882.161 1894.99 877.947 1899.06 872.455C1903.13 866.962 1905.93 860.286 1907.44 852.426H1956.59C1955.36 867.862 1950.81 881.545 1942.95 893.477C1935.09 905.314 1924.39 914.595 1910.85 921.318C1897.31 927.947 1881.4 931.261 1863.12 931.261ZM2050.23 799.159V927H1998.81V636.091H2049.1V745.892H2051.65C2056.77 733.581 2064.67 723.875 2075.37 716.773C2086.17 709.576 2099.9 705.977 2116.57 705.977C2131.72 705.977 2144.93 709.15 2156.2 715.494C2167.47 721.839 2176.18 731.119 2182.33 743.335C2188.58 755.551 2191.71 770.466 2191.71 788.08V927H2140.29V796.034C2140.29 781.356 2136.5 769.945 2128.92 761.801C2121.44 753.562 2110.93 749.443 2097.39 749.443C2088.3 749.443 2080.16 751.432 2072.96 755.409C2065.86 759.292 2060.27 764.926 2056.2 772.312C2052.22 779.699 2050.23 788.648 2050.23 799.159ZM2388.87 740.636L2345.69 636.091H2367.42L2395.4 707.682L2423.53 636.091H2445.26L2401.94 740.636H2388.87ZM2339.01 740.636V636.091H2362.73V740.636H2339.01ZM2428.21 740.636V636.091H2451.79V740.636H2428.21ZM2265.43 740.636V645.182H2289.01V740.636H2265.43ZM2233.61 655.835V636.091H2320.83V655.835H2233.61Z" fill="black"/>
<path d="M1300.69 443H1244.69V499H1300.69V443ZM1300.69 152.091V96.0909H1244.69V152.091H1300.69ZM1489.9 152.091H1545.9V96.0909H1489.9V152.091ZM1489.9 196.267V252.267H1545.9V196.267H1489.9ZM1353.39 196.267V140.267H1297.39V196.267H1353.39ZM1353.39 275.244H1297.39V331.244H1353.39V275.244ZM1480.1 275.244H1536.1V219.244H1480.1V275.244ZM1480.1 319.42V375.42H1536.1V319.42H1480.1ZM1353.39 319.42V263.42H1297.39V319.42H1353.39ZM1353.39 398.824H1297.39V454.824H1353.39V398.824ZM1491.03 398.824H1547.03V342.824H1491.03V398.824ZM1491.03 443V499H1547.03V443H1491.03ZM1356.69 443V152.091H1244.69V443H1356.69ZM1300.69 208.091H1489.9V96.0909H1300.69V208.091ZM1433.9 152.091V196.267H1545.9V152.091H1433.9ZM1489.9 140.267H1353.39V252.267H1489.9V140.267ZM1297.39 196.267V275.244H1409.39V196.267H1297.39ZM1353.39 331.244H1480.1V219.244H1353.39V331.244ZM1424.1 275.244V319.42H1536.1V275.244H1424.1ZM1480.1 263.42H1353.39V375.42H1480.1V263.42ZM1297.39 319.42V398.824H1409.39V319.42H1297.39ZM1353.39 454.824H1491.03V342.824H1353.39V454.824ZM1435.03 398.824V443H1547.03V398.824H1435.03ZM1491.03 387H1300.69V499H1491.03V387ZM1680.45 224.818V168.818H1624.45V224.818H1680.45ZM1731.87 224.818H1787.87V168.818H1731.87V224.818ZM1731.87 443V499H1787.87V443H1731.87ZM1682.01 443H1626.01V499H1682.01V443ZM1682.01 404.222H1738.01V348.222H1682.01V404.222ZM1679.74 404.222V348.222H1641.94L1627.8 383.285L1679.74 404.222ZM1655.45 434.193L1623.68 388.081L1623.59 388.144L1623.49 388.207L1655.45 434.193ZM1576.19 436.324L1547.69 484.527L1547.93 484.673L1548.18 484.816L1576.19 436.324ZM1550.62 408.341L1500.53 433.385L1500.57 433.462L1500.61 433.54L1550.62 408.341ZM1541.39 224.818V168.818H1485.39V224.818H1541.39ZM1592.81 224.818H1648.81V168.818H1592.81V224.818ZM1604.17 388.739L1563.17 426.88L1563.17 426.88L1604.17 388.739ZM1656.02 395.415L1630.18 345.731L1630.18 345.731L1656.02 395.415ZM1673.49 378.938L1626.07 349.148L1626.02 349.231L1625.97 349.313L1673.49 378.938ZM1736.45 351.239V224.818H1624.45V351.239H1736.45ZM1680.45 280.818H1731.87V168.818H1680.45V280.818ZM1675.87 224.818V443H1787.87V224.818H1675.87ZM1731.87 387H1682.01V499H1731.87V387ZM1738.01 443V404.222H1626.01V443H1738.01ZM1682.01 348.222H1679.74V460.222H1682.01V348.222ZM1627.8 383.285C1627.15 384.901 1626.27 386.291 1623.68 388.081L1687.23 480.306C1707.17 466.565 1722.48 447.974 1731.68 425.158L1627.8 383.285ZM1623.49 388.207C1623.48 388.218 1621.45 389.841 1614.12 389.841V501.841C1639.55 501.841 1665.08 495.699 1687.41 480.18L1623.49 388.207ZM1614.12 389.841C1608.37 389.841 1605.63 388.657 1604.2 387.831L1548.18 484.816C1568.72 496.68 1591.26 501.841 1614.12 501.841V389.841ZM1604.69 388.12C1603.78 387.578 1602.37 386.6 1600.63 383.142L1500.61 433.54C1511.18 454.513 1526.82 472.191 1547.69 484.527L1604.69 388.12ZM1600.71 383.297C1599.34 380.551 1597.39 374.719 1597.39 363.739H1485.39C1485.39 387.607 1489.6 411.509 1500.53 433.385L1600.71 383.297ZM1597.39 363.739V224.818H1485.39V363.739H1597.39ZM1541.39 280.818H1592.81V168.818H1541.39V280.818ZM1536.81 224.818V355.784H1648.81V224.818H1536.81ZM1536.81 355.784C1536.81 380.162 1543.76 406.009 1563.17 426.88L1645.18 350.597C1646.95 352.503 1648.05 354.577 1648.59 356.137C1649.07 357.512 1648.81 357.632 1648.81 355.784H1536.81ZM1563.17 426.88C1582.53 447.696 1607.98 456.955 1634 456.955V344.955C1634.07 344.955 1635.86 344.983 1638.54 346.078C1641.34 347.225 1643.64 348.944 1645.18 350.597L1563.17 426.88ZM1634 456.955C1651.08 456.955 1667.24 452.699 1681.86 445.099L1630.18 345.731C1630.27 345.684 1630.73 345.461 1631.52 345.262C1632.33 345.06 1633.19 344.955 1634 344.955V456.955ZM1681.86 445.099C1698.5 436.441 1711.57 423.714 1721.01 408.562L1625.97 349.313C1626.05 349.176 1626.46 348.57 1627.29 347.785C1628.14 346.983 1629.15 346.27 1630.18 345.731L1681.86 445.099ZM1720.91 408.727C1732.49 390.296 1736.45 370.037 1736.45 351.239H1624.45C1624.45 352.908 1624.27 353.329 1624.4 352.825C1624.54 352.252 1624.99 350.874 1626.07 349.148L1720.91 408.727ZM1957.19 282.489L1963.26 338.158L2023.45 331.593L2012.22 272.101L1957.19 282.489ZM1910.32 287.602L1856.39 302.702L1869.19 348.421L1916.39 343.272L1910.32 287.602ZM1903.36 274.25L1859.04 308.491L1859.29 308.803L1859.53 309.111L1903.36 274.25ZM1890.29 264.165L1913.92 213.396L1913.92 213.396L1890.29 264.165ZM1843.13 267.29L1813.06 220.045L1812.92 220.134L1812.78 220.224L1843.13 267.29ZM1832.48 285.33L1888.47 286.165L1888.48 285.388L1888.47 284.612L1832.48 285.33ZM1839.44 300.812L1803.42 343.692L1803.63 343.867L1803.84 344.041L1839.44 300.812ZM1863.3 310.614L1850.71 365.18L1851.15 365.282L1851.59 365.377L1863.3 310.614ZM1900.52 318.568L1912.32 263.826L1912.27 263.816L1912.22 263.805L1900.52 318.568ZM1946.54 339.733L1907.71 380.085L1907.8 380.176L1907.9 380.267L1946.54 339.733ZM1961.88 377.659L2017.88 378.045L2017.88 377.682L2017.88 377.32L1961.88 377.659ZM1949.81 414.023L1905.15 380.23L1905.13 380.261L1905.1 380.293L1949.81 414.023ZM1916.99 438.455L1938.63 490.105L1938.63 490.105L1916.99 438.455ZM1804.21 430.5L1772.35 476.552L1772.44 476.615L1772.53 476.678L1804.21 430.5ZM1775.09 383.483L1769.72 327.741L1710.62 333.433L1719.76 392.096L1775.09 383.483ZM1825.23 378.653L1879.8 366.061L1868.75 318.202L1819.86 322.911L1825.23 378.653ZM1839.72 400.955L1871.19 354.636L1871.19 354.636L1839.72 400.955ZM1897.96 400.955L1866.76 354.45L1866.62 354.543L1866.49 354.636L1897.96 400.955ZM1901.94 366.864L1865.42 409.322L1865.63 409.5L1865.84 409.677L1901.94 366.864ZM1879.78 357.489L1891.65 302.762L1891.47 302.722L1891.28 302.683L1879.78 357.489ZM1842.56 349.676L1854.07 294.871L1854.02 294.861L1853.97 294.851L1842.56 349.676ZM1796.11 327.659L1755.79 366.517L1755.88 366.609L1755.97 366.701L1796.11 327.659ZM1781.2 288.17L1837.2 288.504L1837.2 288.14L1837.2 287.776L1781.2 288.17ZM1792.13 253.227L1747.39 219.559L1747.36 219.593L1747.33 219.627L1792.13 253.227ZM1823.24 230.216L1844.36 282.082L1844.45 282.044L1844.55 282.005L1823.24 230.216ZM1929.78 238.312L1896.41 283.286L1896.48 283.337L1896.55 283.388L1929.78 238.312ZM1951.12 226.819L1904.24 231.933L1916.39 343.272L1963.26 338.158L1951.12 226.819ZM1964.24 272.503C1960.74 259.995 1954.76 248.914 1947.18 239.389L1859.53 309.111C1858.58 307.919 1857.24 305.74 1856.39 302.702L1964.24 272.503ZM1947.67 240.009C1938.2 227.761 1926.3 219.159 1913.92 213.396L1866.65 314.933C1865.26 314.284 1862.07 312.406 1859.04 308.491L1947.67 240.009ZM1913.92 213.396C1899.09 206.493 1883.79 204.33 1870.12 204.33V316.33C1871.14 316.33 1871.25 316.414 1870.67 316.303C1870.06 316.187 1868.61 315.843 1866.65 314.933L1913.92 213.396ZM1870.12 204.33C1851.3 204.33 1831.26 208.463 1813.06 220.045L1873.19 314.535C1871.52 315.599 1870.1 316.097 1869.33 316.295C1868.63 316.476 1868.79 316.33 1870.12 316.33V204.33ZM1812.78 220.224C1792.41 233.358 1776.1 256.028 1776.48 286.047L1888.47 284.612C1888.55 290.56 1887.04 297.41 1883.29 303.756C1879.74 309.759 1875.57 313.004 1873.47 314.355L1812.78 220.224ZM1776.48 284.494C1776.14 307.162 1785.41 328.562 1803.42 343.692L1875.45 257.933C1878.93 260.855 1882.61 265.197 1885.22 270.998C1887.81 276.756 1888.53 282.142 1888.47 286.165L1776.48 284.494ZM1803.84 344.041C1818.8 356.366 1837.01 362.019 1850.71 365.18L1875.89 256.048C1874.22 255.662 1872.93 255.309 1871.96 255.013C1870.99 254.715 1870.46 254.511 1870.3 254.445C1870.13 254.374 1870.5 254.513 1871.25 254.941C1872 255.364 1873.36 256.201 1875.04 257.584L1803.84 344.041ZM1851.59 365.377L1888.81 373.331L1912.22 263.805L1875 255.851L1851.59 365.377ZM1888.71 373.31C1895.99 374.879 1900.94 376.617 1904.11 378.075C1907.25 379.521 1908.05 380.414 1907.71 380.085L1985.37 299.381C1964.91 279.697 1938.26 269.42 1912.32 263.826L1888.71 373.31ZM1907.9 380.267C1907.7 380.077 1907.35 379.703 1906.97 379.141C1906.58 378.576 1906.27 377.99 1906.06 377.458C1905.6 376.327 1905.87 376.247 1905.88 377.998L2017.88 377.32C2017.7 348.439 2007.64 320.615 1985.18 299.199L1907.9 380.267ZM1905.88 377.273C1905.87 378.712 1905.67 379.313 1905.64 379.402C1905.62 379.466 1905.55 379.697 1905.15 380.23L1994.46 447.816C2010.01 427.261 2017.7 403.305 2017.88 378.045L1905.88 377.273ZM1905.1 380.293C1904.13 381.582 1901.75 384.124 1895.36 386.804L1938.63 490.105C1960.26 481.043 1979.76 467.297 1994.51 447.753L1905.1 380.293ZM1895.36 386.804C1889.4 389.299 1880.88 391.261 1868.7 391.261V503.261C1892.88 503.261 1916.56 499.353 1938.63 490.105L1895.36 386.804ZM1868.7 391.261C1849.41 391.261 1840.09 387.202 1835.89 384.322L1772.53 476.678C1800.91 496.146 1834.58 503.261 1868.7 503.261V391.261ZM1836.07 384.448C1832.77 382.165 1831.26 380.218 1830.42 374.87L1719.76 392.096C1725.17 426.899 1743.07 456.297 1772.35 476.552L1836.07 384.448ZM1780.46 439.225L1830.6 434.395L1819.86 322.911L1769.72 327.741L1780.46 439.225ZM1770.67 391.246C1775.66 412.892 1787.63 433.265 1808.25 447.273L1871.19 354.636C1873.62 356.282 1875.84 358.528 1877.52 361.106C1879.13 363.583 1879.67 365.497 1879.8 366.061L1770.67 391.246ZM1808.25 447.273C1827.5 460.357 1849.09 464.483 1868.56 464.483V352.483C1866.53 352.483 1866.02 352.262 1866.62 352.417C1867.3 352.596 1869.04 353.174 1871.19 354.636L1808.25 447.273ZM1868.56 464.483C1887.98 464.483 1909.92 460.534 1929.43 447.273L1866.49 354.636C1868.81 353.055 1870.63 352.492 1871.18 352.351C1871.64 352.233 1870.91 352.483 1868.56 352.483V464.483ZM1929.16 447.459C1948.25 434.648 1965.18 412.638 1965.18 382.347H1853.18C1853.18 376.059 1854.92 369.425 1858.42 363.619C1861.68 358.209 1865.31 355.422 1866.76 354.45L1929.16 447.459ZM1965.18 382.347C1965.18 359.386 1955.33 338.631 1938.03 324.05L1865.84 409.677C1862.73 407.059 1859.23 403.048 1856.65 397.521C1854.05 391.977 1853.18 386.619 1853.18 382.347H1965.18ZM1938.45 324.405C1923.49 311.537 1905.59 305.786 1891.65 302.762L1867.9 412.215C1870.41 412.76 1871.29 413.151 1871.03 413.04C1870.85 412.967 1870.23 412.694 1869.3 412.139C1868.36 411.583 1867 410.679 1865.42 409.322L1938.45 324.405ZM1891.28 302.683L1854.07 294.871L1831.06 404.482L1868.27 412.294L1891.28 302.683ZM1853.97 294.851C1838.98 291.731 1835.58 287.918 1836.26 288.617L1755.97 366.701C1776.72 388.044 1804.28 398.909 1831.15 404.501L1853.97 294.851ZM1836.44 288.801C1836.43 288.793 1836.58 288.947 1836.77 289.261C1836.98 289.578 1837.14 289.907 1837.24 290.188C1837.35 290.461 1837.34 290.535 1837.3 290.323C1837.27 290.099 1837.19 289.517 1837.2 288.504L1725.2 287.837C1725.03 316.759 1734.56 344.486 1755.79 366.517L1836.44 288.801ZM1837.2 287.776C1837.19 287.004 1837.24 286.516 1837.28 286.269C1837.31 286.027 1837.33 285.98 1837.3 286.078C1837.27 286.179 1837.21 286.34 1837.12 286.52C1837.03 286.7 1836.95 286.807 1836.93 286.827L1747.33 219.627C1731.91 240.195 1725.03 264.065 1725.2 288.565L1837.2 287.776ZM1836.88 286.895C1837.41 286.197 1839.05 284.246 1844.36 282.082L1802.13 178.35C1780.93 186.982 1761.82 200.371 1747.39 219.559L1836.88 286.895ZM1844.55 282.005C1849.9 279.804 1857.82 277.977 1869.41 277.977V165.977C1846.15 165.977 1823.29 169.643 1801.94 178.426L1844.55 282.005ZM1869.41 277.977C1887.63 277.977 1894.56 281.914 1896.41 283.286L1963.14 193.339C1935.64 172.931 1902.32 165.977 1869.41 165.977V277.977ZM1896.55 283.388C1899.57 285.617 1901.2 287.768 1902.16 292.877L2012.22 272.101C2006.18 240.088 1989.53 212.788 1963.01 193.237L1896.55 283.388ZM2051.15 374.534L1995.15 374.662L1995.48 516.309L2092.1 412.734L2051.15 374.534ZM2051.01 312.46V256.46H1994.88L1995.01 312.588L2051.01 312.46ZM2059.25 312.46V368.46H2084.29L2100.99 349.799L2059.25 312.46ZM2137.66 224.818V168.818H2112.62L2095.93 187.48L2137.66 224.818ZM2197.75 224.818L2239.41 262.238L2323.31 168.818H2197.75V224.818ZM2101.3 332.205V388.205H2126.27L2142.96 369.624L2101.3 332.205ZM2090.64 332.205V276.205H2066.3L2049.7 294.005L2090.64 332.205ZM2004.28 443H1948.28V499H2004.28V443ZM2004.28 152.091V96.0909H1948.28V152.091H2004.28ZM2055.7 152.091H2111.7V96.0909H2055.7V152.091ZM2055.7 443V499H2111.7V443H2055.7ZM2141.21 443L2095.66 475.58L2112.42 499H2141.21V443ZM2070.19 343.71L2029.73 304.995L1997.63 338.534L2024.64 376.29L2070.19 343.71ZM2104.85 307.489L2150.25 274.701L2110.88 220.188L2064.39 268.773L2104.85 307.489ZM2202.72 443V499H2312.24L2248.12 410.213L2202.72 443ZM2107.15 374.406L2107.01 312.332L1995.01 312.588L1995.15 374.662L2107.15 374.406ZM2051.01 368.46H2059.25V256.46H2051.01V368.46ZM2100.99 349.799L2179.4 262.157L2095.93 187.48L2017.52 275.122L2100.99 349.799ZM2137.66 280.818H2197.75V168.818H2137.66V280.818ZM2156.08 187.399L2059.63 294.785L2142.96 369.624L2239.41 262.238L2156.08 187.399ZM2101.3 276.205H2090.64V388.205H2101.3V276.205ZM2049.7 294.005L2010.21 336.334L2092.1 412.734L2131.59 370.405L2049.7 294.005ZM2060.28 443V152.091H1948.28V443H2060.28ZM2004.28 208.091H2055.7V96.0909H2004.28V208.091ZM1999.7 152.091V443H2111.7V152.091H1999.7ZM2055.7 387H2004.28V499H2055.7V387ZM2186.76 410.42L2115.74 311.13L2024.64 376.29L2095.66 475.58L2186.76 410.42ZM2110.65 382.426L2145.31 346.204L2064.39 268.773L2029.73 304.995L2110.65 382.426ZM2059.45 340.276L2157.32 475.787L2248.12 410.213L2150.25 274.701L2059.45 340.276ZM2202.72 387H2141.21V499H2202.72V387ZM2257.44 440.017L2234.17 490.952L2234.43 491.073L2234.7 491.19L2257.44 440.017ZM2231.3 417.858L2184.36 448.393L2184.47 448.553L2184.57 448.711L2231.3 417.858ZM2228.61 351.239L2179.84 323.702L2179.84 323.702L2228.61 351.239ZM2247.21 331.92L2217.9 284.208L2217.9 284.208L2247.21 331.92ZM2273.78 320.983L2287.36 375.311L2287.54 375.265L2287.72 375.219L2273.78 320.983ZM2304.6 315.443L2298.82 259.742L2298.73 259.752L2298.63 259.762L2304.6 315.443ZM2335.71 311.892L2342.98 367.418L2343.3 367.375L2343.63 367.329L2335.71 311.892ZM2353.04 306.778L2382.94 354.126L2383.1 354.025L2383.26 353.924L2353.04 306.778ZM2349.06 270.131L2387.09 229.029L2387.09 229.029L2349.06 270.131ZM2291.67 269.562L2258.26 224.625L2258.12 224.728L2257.98 224.832L2291.67 269.562ZM2276.9 289.023L2269.03 344.466L2314.91 350.982L2329.89 307.133L2276.9 289.023ZM2228.89 282.205L2175.04 266.82L2157.39 328.613L2221.02 337.648L2228.89 282.205ZM2247.64 248.966L2287.66 288.136L2287.76 288.03L2287.87 287.924L2247.64 248.966ZM2279.6 228.795L2298.26 281.596L2298.43 281.533L2298.61 281.47L2279.6 228.795ZM2381.3 237.886L2350.48 284.639L2350.66 284.757L2350.84 284.875L2381.3 237.886ZM2402.04 260.756L2352.75 287.334L2352.85 287.521L2352.95 287.706L2402.04 260.756ZM2410 443V499H2466V443H2410ZM2360.57 443H2304.57V499H2360.57V443ZM2360.57 413.028H2416.57V357.028H2360.57V413.028ZM2358.86 413.028V357.028H2324.73L2309.09 387.364L2358.86 413.028ZM2345.65 430.074L2383.84 471.036L2383.85 471.025L2383.86 471.013L2345.65 430.074ZM2324.49 442.716L2343.95 495.223L2344.12 495.163L2344.28 495.102L2324.49 442.716ZM2335 403.511L2361.51 452.838L2361.75 452.71L2361.98 452.579L2335 403.511ZM2352.47 387.034L2304.68 357.833L2304.54 358.076L2304.39 358.321L2352.47 387.034ZM2358.72 339.023H2414.72V220.359L2323.12 295.795L2358.72 339.023ZM2350.48 342.716L2334.75 288.971L2334.57 289.024L2334.39 289.078L2350.48 342.716ZM2337.7 345.699L2347.62 400.813L2347.62 400.813L2337.7 345.699ZM2311.56 349.676L2319.1 405.167L2319.18 405.155L2319.26 405.144L2311.56 349.676ZM2290.96 354.79L2270.59 302.628L2270.59 302.628L2290.96 354.79ZM2276.62 364.733L2319.48 400.775L2319.68 400.538L2319.87 400.299L2276.62 364.733ZM2281.73 402.375L2249.66 448.282L2249.66 448.282L2281.73 402.375ZM2294.8 391.403C2287.71 391.403 2283.17 390.168 2280.18 388.844L2234.7 491.19C2253.87 499.714 2274.23 503.403 2294.8 503.403V391.403ZM2280.71 389.082C2278.94 388.272 2278.49 387.695 2278.04 387.004L2184.57 448.711C2196.99 467.528 2213.97 481.724 2234.17 490.952L2280.71 389.082ZM2278.25 387.323C2278.54 387.779 2278.48 387.885 2278.31 387.24C2278.12 386.522 2277.79 384.81 2277.79 381.778H2165.79C2165.79 404.425 2170.88 427.667 2184.36 448.393L2278.25 387.323ZM2277.79 381.778C2277.79 379.014 2278.05 377.556 2278.15 377.112C2278.23 376.717 2278.12 377.436 2277.37 378.775L2179.84 323.702C2169.24 342.487 2165.79 362.909 2165.79 381.778H2277.79ZM2277.37 378.775C2277.39 378.732 2277.37 378.771 2277.3 378.868C2277.23 378.966 2277.13 379.089 2277 379.222C2276.87 379.354 2276.75 379.463 2276.65 379.544C2276.55 379.625 2276.5 379.652 2276.53 379.633L2217.9 284.208C2201.93 294.017 2189.05 307.406 2179.84 323.702L2277.37 378.775ZM2276.53 379.633C2279.05 378.084 2282.51 376.523 2287.36 375.311L2260.19 266.655C2245.35 270.367 2231.1 276.097 2217.9 284.208L2276.53 379.633ZM2287.72 375.219C2294.94 373.362 2302.55 371.984 2310.57 371.124L2298.63 259.762C2285.44 261.175 2272.49 263.491 2259.83 266.747L2287.72 375.219ZM2310.38 371.144C2323.4 369.794 2334.32 368.551 2342.98 367.418L2328.44 256.366C2321.18 257.316 2311.37 258.441 2298.82 259.742L2310.38 371.144ZM2343.63 367.329C2353.68 365.894 2369.08 362.879 2382.94 354.126L2323.13 259.431C2325.23 258.105 2326.97 257.287 2328.06 256.824C2329.17 256.353 2329.91 256.123 2330.16 256.051C2330.56 255.932 2329.91 256.152 2327.79 256.455L2343.63 367.329ZM2383.26 353.924C2405.21 339.852 2414.58 317.084 2414.58 295.841H2302.58C2302.58 291.294 2303.45 284.434 2307.23 276.965C2311.16 269.224 2316.89 263.43 2322.82 259.633L2383.26 353.924ZM2414.58 295.841V294.989H2302.58V295.841H2414.58ZM2414.58 294.989C2414.58 272.665 2407.52 247.931 2387.09 229.029L2311.03 311.233C2307.72 308.173 2305.3 304.437 2303.9 300.771C2302.59 297.355 2302.58 295.11 2302.58 294.989H2414.58ZM2387.09 229.029C2367.02 210.45 2342.27 205.324 2321.64 205.324V317.324C2323.15 317.324 2322.44 317.524 2320.32 316.842C2317.98 316.09 2314.48 314.43 2311.03 311.233L2387.09 229.029ZM2321.64 205.324C2301.37 205.324 2278.3 209.724 2258.26 224.625L2325.09 314.5C2322.55 316.388 2320.42 317.142 2319.55 317.381C2318.8 317.586 2319.33 317.324 2321.64 317.324V205.324ZM2257.98 224.832C2243.16 235.994 2230.63 251.256 2223.91 270.912L2329.89 307.133C2329.18 309.227 2328.16 311.028 2327.12 312.407C2326.11 313.734 2325.35 314.305 2325.37 314.293L2257.98 224.832ZM2284.77 233.579L2236.76 226.761L2221.02 337.648L2269.03 344.466L2284.77 233.579ZM2282.73 297.589C2284.24 292.309 2286.14 289.691 2287.66 288.136L2207.62 209.796C2191.72 226.043 2181.11 245.585 2175.04 266.82L2282.73 297.589ZM2287.87 287.924C2290.16 285.558 2293.27 283.358 2298.26 281.596L2260.94 175.995C2240.74 183.134 2222.54 194.382 2207.41 210.008L2287.87 287.924ZM2298.61 281.47C2304.33 279.407 2311.71 277.977 2321.36 277.977V165.977C2300.52 165.977 2280.06 169.093 2260.59 176.121L2298.61 281.47ZM2321.36 277.977C2327.46 277.977 2333.6 278.686 2339.87 280.169L2365.63 171.172C2351.07 167.731 2336.29 165.977 2321.36 165.977V277.977ZM2339.87 280.169C2344.14 281.177 2347.54 282.704 2350.48 284.639L2412.13 191.134C2397.83 181.705 2382.2 175.088 2365.63 171.172L2339.87 280.169ZM2350.84 284.875C2351.03 284.997 2351.69 285.366 2352.75 287.334L2451.33 234.177C2441.98 216.827 2428.81 201.95 2411.77 190.898L2350.84 284.875ZM2352.95 287.706C2352.52 286.911 2354 289.041 2354 296.977H2466C2466 275.937 2462.17 253.919 2451.13 233.805L2352.95 287.706ZM2354 296.977V443H2466V296.977H2354ZM2410 387H2360.57V499H2410V387ZM2416.57 443V413.028H2304.57V443H2416.57ZM2360.57 357.028H2358.86V469.028H2360.57V357.028ZM2309.09 387.364C2309.29 386.968 2309.07 387.616 2307.44 389.135L2383.86 471.013C2393.6 461.926 2402.18 451.21 2408.63 438.693L2309.09 387.364ZM2307.47 389.112C2308.13 388.492 2307.69 389.199 2304.7 390.329L2344.28 495.102C2358.33 489.794 2372 482.072 2383.84 471.036L2307.47 389.112ZM2305.02 390.209C2304.22 390.504 2301.2 391.403 2294.8 391.403V503.403C2311.13 503.403 2327.89 501.178 2343.95 495.223L2305.02 390.209ZM2308.15 465.619C2325.88 465.619 2344.3 462.087 2361.51 452.838L2308.48 354.185C2308.93 353.944 2309.33 353.773 2309.64 353.657C2309.95 353.542 2310.14 353.496 2310.18 353.488C2310.25 353.472 2309.64 353.619 2308.15 353.619V465.619ZM2361.98 452.579C2377.48 444.059 2390.93 431.851 2400.55 415.748L2304.39 358.321C2305.02 357.259 2305.81 356.296 2306.63 355.527C2307.42 354.777 2307.98 354.46 2308.01 354.443L2361.98 452.579ZM2400.25 416.235C2409.83 400.557 2414.72 383.006 2414.72 364.733H2302.72C2302.72 363.868 2302.84 362.641 2303.23 361.233C2303.63 359.822 2304.18 358.661 2304.68 357.833L2400.25 416.235ZM2414.72 364.733V339.023H2302.72V364.733H2414.72ZM2323.12 295.795C2327.46 292.216 2331.18 290.45 2332.54 289.84C2334.14 289.126 2335.02 288.893 2334.75 288.971L2366.21 396.461C2371.81 394.821 2383.63 391.051 2394.32 382.251L2323.12 295.795ZM2334.39 289.078C2333.01 289.492 2330.85 290.03 2327.78 290.585L2347.62 400.813C2354.01 399.663 2360.38 398.212 2366.57 396.354L2334.39 289.078ZM2327.78 290.585C2323.69 291.32 2319.67 291.97 2315.71 292.534L2331.55 403.409C2336.88 402.648 2342.23 401.782 2347.62 400.813L2327.78 290.585ZM2315.71 292.534C2311.12 293.19 2307.17 293.748 2303.86 294.209L2319.26 405.144C2322.76 404.657 2326.86 404.079 2331.55 403.409L2315.71 292.534ZM2304.02 294.185C2292.76 295.715 2281.47 298.376 2270.59 302.628L2311.34 406.951C2312.57 406.469 2315.02 405.72 2319.1 405.167L2304.02 294.185ZM2270.59 302.628C2257.21 307.853 2243.96 316.282 2233.36 329.167L2319.87 400.299C2316.29 404.661 2312.59 406.462 2311.34 406.951L2270.59 302.628ZM2233.76 328.691C2220.03 345.018 2215.36 364.092 2215.36 380.926H2327.36C2327.36 384.503 2326.2 392.781 2319.48 400.775L2233.76 328.691ZM2215.36 380.926C2215.36 406.073 2225.73 431.563 2249.66 448.282L2313.8 356.468C2317.7 359.191 2321.67 363.426 2324.37 369.017C2326.96 374.367 2327.36 378.827 2327.36 380.926H2215.36ZM2249.66 448.282C2268.23 461.253 2289.07 465.619 2308.15 465.619V353.619C2306.97 353.619 2307.16 353.482 2308.33 353.802C2309.59 354.147 2311.59 354.924 2313.8 356.468L2249.66 448.282ZM2496.64 433.625L2466.11 480.57L2466.11 480.57L2496.64 433.625ZM2464.54 395.273L2515.24 371.497L2515.24 371.497L2464.54 395.273ZM2464.68 272.83L2414.2 248.587L2414.17 248.648L2414.15 248.709L2464.68 272.83ZM2497.21 234.903L2526.89 282.391L2527.01 282.317L2527.13 282.243L2497.21 234.903ZM2574.34 228.511L2548.17 278.017L2548.39 278.135L2548.62 278.252L2574.34 228.511ZM2593.95 243.994L2550.15 278.894L2550.28 279.062L2550.42 279.229L2593.95 243.994ZM2605.17 260.898L2555.08 285.942L2570.56 316.898H2605.17V260.898ZM2607.3 260.898V316.898H2663.3V260.898H2607.3ZM2607.3 152.091V96.0909H2551.3V152.091H2607.3ZM2658.86 152.091H2714.86V96.0909H2658.86V152.091ZM2658.86 443V499H2714.86V443H2658.86ZM2608.29 443H2552.29V499H2608.29V443ZM2608.29 408.625H2664.29V352.625H2608.29V408.625ZM2605.17 408.625V352.625H2570.56L2555.08 383.581L2605.17 408.625ZM2593.66 425.528L2636.23 461.916L2636.37 461.748L2636.51 461.579L2593.66 425.528ZM2573.78 440.585L2599.05 490.558L2599.05 490.558L2573.78 440.585ZM2584.86 395.841L2618.89 440.309L2619.06 440.178L2619.24 440.045L2584.86 395.841ZM2602.33 370.983L2549.89 351.32L2549.89 351.32L2602.33 370.983ZM2602.33 297.119L2549.85 316.678L2549.93 316.886L2550.01 317.095L2602.33 297.119ZM2585 272.83L2551.04 317.361L2551.18 317.462L2551.31 317.563L2585 272.83ZM2528.32 273.114L2493.94 228.91L2493.94 228.91L2528.32 273.114ZM2510.99 297.83L2458.46 278.426L2458.46 278.426L2510.99 297.83ZM2510.99 370.415L2458.35 389.515L2458.45 389.797L2458.56 390.078L2510.99 370.415ZM2528.46 395.557L2493.41 439.233L2493.71 439.47L2494.01 439.703L2528.46 395.557ZM2542.67 390.835C2535.67 390.835 2531.07 389.21 2527.18 386.68L2466.11 480.57C2489.31 495.654 2515.38 502.835 2542.67 502.835V390.835ZM2527.18 386.68C2523.61 384.358 2519.33 380.217 2515.24 371.497L2413.84 419.048C2425.47 443.852 2442.6 465.278 2466.11 480.57L2527.18 386.68ZM2515.24 371.497C2511.74 364.027 2508.75 352.258 2508.75 334.193H2396.75C2396.75 364.045 2401.62 392.995 2413.84 419.048L2515.24 371.497ZM2508.75 334.193C2508.75 315.797 2511.81 304.113 2515.22 296.95L2414.15 248.709C2401.66 274.879 2396.75 304.105 2396.75 334.193H2508.75ZM2515.17 297.072C2519.36 288.347 2523.59 284.457 2526.89 282.391L2467.53 187.416C2443.57 202.395 2426.11 223.79 2414.2 248.587L2515.17 297.072ZM2527.13 282.243C2531.45 279.511 2536.2 277.977 2542.81 277.977V165.977C2515.89 165.977 2490.25 173.061 2467.3 187.564L2527.13 282.243ZM2542.81 277.977C2546.08 277.977 2548.03 278.262 2548.92 278.446C2549.78 278.624 2549.36 278.645 2548.17 278.017L2600.52 179.005C2581.78 169.097 2561.49 165.977 2542.81 165.977V277.977ZM2548.62 278.252C2549.92 278.924 2550.54 279.39 2550.71 279.523C2550.86 279.642 2550.6 279.455 2550.15 278.894L2637.74 209.095C2627.13 195.78 2613.95 185.952 2600.07 178.771L2548.62 278.252ZM2550.42 279.229C2553.4 282.914 2554.68 285.142 2555.08 285.942L2655.26 235.854C2650.35 226.048 2644.15 217.006 2637.47 208.759L2550.42 279.229ZM2605.17 316.898H2607.3V204.898H2605.17V316.898ZM2663.3 260.898V152.091H2551.3V260.898H2663.3ZM2607.3 208.091H2658.86V96.0909H2607.3V208.091ZM2602.86 152.091V443H2714.86V152.091H2602.86ZM2658.86 387H2608.29V499H2658.86V387ZM2664.29 443V408.625H2552.29V443H2664.29ZM2608.29 352.625H2605.17V464.625H2608.29V352.625ZM2555.08 383.581C2554.9 383.934 2553.82 385.893 2550.81 389.478L2636.51 461.579C2643.54 453.232 2650.13 443.922 2655.26 433.669L2555.08 383.581ZM2551.1 389.141C2551.73 388.4 2551.4 389.148 2548.5 390.613L2599.05 490.558C2612.63 483.69 2625.56 474.399 2636.23 461.916L2551.1 389.141ZM2548.5 390.613C2549.49 390.116 2549.73 390.181 2548.79 390.37C2547.82 390.564 2545.86 390.835 2542.67 390.835V502.835C2560.99 502.835 2580.7 499.835 2599.05 490.558L2548.5 390.613ZM2557.01 460.648C2578.56 460.648 2600.22 454.602 2618.89 440.309L2550.82 351.372C2552.18 350.331 2553.75 349.529 2555.25 349.054C2556.68 348.602 2557.4 348.648 2557.01 348.648V460.648ZM2619.24 440.045C2636.35 426.734 2647.76 409.313 2654.76 390.646L2549.89 351.32C2549.38 352.697 2549.04 353.117 2549.16 352.95C2549.22 352.87 2549.36 352.682 2549.6 352.429C2549.84 352.174 2550.13 351.902 2550.47 351.637L2619.24 440.045ZM2654.76 390.646C2661.6 372.42 2664.29 353.147 2664.29 333.909H2552.29C2552.29 342.891 2551.01 348.334 2549.89 351.32L2654.76 390.646ZM2664.29 333.909C2664.29 314.708 2661.61 295.381 2654.64 277.144L2550.01 317.095C2551 319.691 2552.29 324.89 2552.29 333.909H2664.29ZM2654.8 277.561C2647.79 258.745 2636.17 241.263 2618.69 228.096L2551.31 317.563C2550.89 317.249 2550.51 316.911 2550.18 316.573C2549.86 316.235 2549.63 315.949 2549.5 315.758C2549.22 315.368 2549.43 315.542 2549.85 316.678L2654.8 277.561ZM2618.95 228.298C2600.09 213.912 2578.28 208.165 2557.01 208.165V320.165C2557.68 320.165 2557.12 320.249 2555.76 319.825C2554.3 319.375 2552.61 318.558 2551.04 317.361L2618.95 228.298ZM2557.01 208.165C2535.42 208.165 2513.13 213.988 2493.94 228.91L2562.7 317.317C2561.07 318.584 2559.35 319.418 2557.92 319.862C2556.59 320.276 2556.14 320.165 2557.01 320.165V208.165ZM2493.94 228.91C2476.83 242.221 2465.4 259.648 2458.46 278.426L2563.52 317.233C2563.98 315.99 2564.26 315.674 2564.09 315.916C2564.01 316.033 2563.84 316.245 2563.59 316.513C2563.34 316.782 2563.04 317.058 2562.7 317.317L2493.94 228.91ZM2458.46 278.426C2451.86 296.293 2449.17 315.086 2449.17 333.909H2561.17C2561.17 325.649 2562.36 320.388 2563.52 317.233L2458.46 278.426ZM2449.17 333.909C2449.17 352.805 2451.85 371.614 2458.35 389.515L2563.63 351.315C2562.36 347.814 2561.17 342.286 2561.17 333.909H2449.17ZM2458.56 390.078C2465.52 408.652 2476.77 425.875 2493.41 439.233L2563.51 351.881C2563.74 352.066 2563.94 352.254 2564.1 352.423C2564.17 352.504 2564.23 352.572 2564.27 352.622C2564.31 352.672 2564.33 352.699 2564.33 352.698C2564.33 352.697 2564.31 352.665 2564.26 352.596C2564.22 352.527 2564.16 352.418 2564.08 352.265C2563.92 351.958 2563.69 351.467 2563.43 350.752L2458.56 390.078ZM2494.01 439.703C2513.01 454.53 2535.15 460.648 2557.01 460.648V348.648C2556.42 348.648 2557.03 348.572 2558.42 349.015C2559.89 349.484 2561.5 350.302 2562.92 351.411L2494.01 439.703ZM2713.65 443H2657.65V499H2713.65V443ZM2713.65 224.818V168.818H2657.65V224.818H2713.65ZM2765.08 224.818H2821.08V168.818H2765.08V224.818ZM2765.08 443V499H2821.08V443H2765.08ZM2718.48 185.756L2680.23 226.651L2680.4 226.817L2680.58 226.981L2718.48 185.756ZM2718.48 146.267L2756.39 187.492L2756.56 187.328L2756.74 187.162L2718.48 146.267ZM2760.53 146.267L2721.94 186.85L2722.28 187.174L2722.63 187.492L2760.53 146.267ZM2760.53 185.756L2798.76 226.672L2798.78 226.662L2798.79 226.651L2760.53 185.756ZM2769.65 443V224.818H2657.65V443H2769.65ZM2713.65 280.818H2765.08V168.818H2713.65V280.818ZM2709.08 224.818V443H2821.08V224.818H2709.08ZM2765.08 387H2713.65V499H2765.08V387ZM2739.51 137.852C2741.73 137.852 2744.83 138.244 2748.27 139.57C2751.73 140.903 2754.47 142.766 2756.39 144.53L2680.58 226.981C2697.03 242.1 2717.65 249.852 2739.51 249.852V137.852ZM2756.74 144.861C2758.63 146.63 2761.11 149.603 2763.02 153.888C2764.96 158.232 2765.68 162.501 2765.68 166.011H2653.68C2653.68 190.002 2663.65 211.143 2680.23 226.651L2756.74 144.861ZM2765.68 166.011C2765.68 169.372 2765 173.632 2763.02 178.063C2761.06 182.46 2758.47 185.575 2756.39 187.492L2680.58 105.042C2663.53 120.718 2653.68 142.103 2653.68 166.011H2765.68ZM2756.74 187.162C2754.86 188.925 2752.11 190.842 2748.58 192.227C2745.05 193.608 2741.85 194.028 2739.51 194.028V82.0284C2717.36 82.0284 2696.62 90.0351 2680.23 105.372L2756.74 187.162ZM2739.51 194.028C2737.3 194.028 2734.11 193.637 2730.51 192.227C2726.88 190.805 2723.99 188.795 2721.94 186.85L2799.12 105.684C2782.55 89.9312 2761.57 82.0284 2739.51 82.0284V194.028ZM2722.63 187.492C2720.54 185.575 2717.95 182.46 2715.99 178.063C2714.02 173.632 2713.34 169.372 2713.34 166.011H2825.34C2825.34 142.103 2815.48 120.718 2798.43 105.042L2722.63 187.492ZM2713.34 166.011C2713.34 162.501 2714.05 158.232 2715.99 153.888C2717.9 149.603 2720.38 146.63 2722.27 144.861L2798.79 226.651C2815.36 211.143 2825.34 190.002 2825.34 166.011H2713.34ZM2722.3 144.839C2724.38 142.893 2727.26 140.939 2730.82 139.57C2734.33 138.216 2737.41 137.852 2739.51 137.852V249.852C2761.28 249.852 2782.14 242.203 2798.76 226.672L2722.3 144.839ZM1287.91 680.267H1231.91V736.267H1287.91V680.267ZM1287.91 636.091V580.091H1231.91V636.091H1287.91ZM1520.01 636.091H1576.01V580.091H1520.01V636.091ZM1520.01 680.267V736.267H1576.01V680.267H1520.01ZM1430.1 680.267V624.267H1374.1V680.267H1430.1ZM1430.1 927V983H1486.1V927H1430.1ZM1377.82 927H1321.82V983H1377.82V927ZM1377.82 680.267H1433.82V624.267H1377.82V680.267ZM1343.91 680.267V636.091H1231.91V680.267H1343.91ZM1287.91 692.091H1520.01V580.091H1287.91V692.091ZM1464.01 636.091V680.267H1576.01V636.091H1464.01ZM1520.01 624.267H1430.1V736.267H1520.01V624.267ZM1374.1 680.267V927H1486.1V680.267H1374.1ZM1430.1 871H1377.82V983H1430.1V871ZM1433.82 927V680.267H1321.82V927H1433.82ZM1377.82 624.267H1287.91V736.267H1377.82V624.267ZM1570.76 917.625L1542.63 966.049L1542.8 966.148L1542.97 966.247L1570.76 917.625ZM1534.25 878.705L1484.28 903.973L1484.31 904.03L1484.33 904.086L1534.25 878.705ZM1534.25 760.097L1484.28 734.831L1484.25 734.886L1484.22 734.941L1534.25 760.097ZM1570.33 720.324L1599.62 768.057L1599.72 767.992L1599.83 767.926L1570.33 720.324ZM1662.8 712.511L1643.6 765.115L1643.85 765.207L1644.1 765.296L1662.8 712.511ZM1694.62 732.398L1655.44 772.406L1655.54 772.506L1655.64 772.606L1694.62 732.398ZM1716.5 766.773L1664.16 786.708L1664.19 786.768L1664.21 786.828L1716.5 766.773ZM1724.45 831.972V887.972H1780.45V831.972H1724.45ZM1545.62 831.972H1489.62V887.972H1545.62V831.972ZM1545.62 797.312V741.312H1489.62V797.312H1545.62ZM1675.16 797.312V853.312H1731.7L1731.16 796.774L1675.16 797.312ZM1668.77 771.034L1619.42 797.512L1619.49 797.638L1619.56 797.765L1668.77 771.034ZM1651.3 752.71L1622.39 800.675L1622.53 800.757L1622.66 800.837L1651.3 752.71ZM1597.75 753.705L1627.63 801.065L1627.83 800.939L1628.03 800.811L1597.75 753.705ZM1579.14 773.591L1529.87 746.974L1529.81 747.076L1529.76 747.178L1579.14 773.591ZM1572.46 800.438L1516.46 799.894L1516.46 800.166V800.438H1572.46ZM1579.42 863.364L1529.54 888.822L1529.6 888.928L1529.65 889.034L1579.42 863.364ZM1598.88 884.102L1570.8 932.554L1571.01 932.674L1571.22 932.792L1598.88 884.102ZM1648.46 888.08L1666.66 941.038L1667.03 940.911L1667.4 940.78L1648.46 888.08ZM1664.22 878.562L1625.95 837.681L1664.22 878.562ZM1674.31 863.08L1680.56 807.43L1636.97 802.529L1621.77 843.683L1674.31 863.08ZM1722.32 868.477L1776.79 881.485L1791.49 819.902L1728.58 812.828L1722.32 868.477ZM1704.99 901.716L1663.37 864.254L1663.36 864.266L1663.34 864.277L1704.99 901.716ZM1672.6 923.591L1692.88 975.79L1693.05 975.727L1693.21 975.663L1672.6 923.591ZM1627.43 875.261C1613.41 875.261 1604.48 872.4 1598.54 869.003L1542.97 966.247C1568.85 981.032 1597.7 987.261 1627.43 987.261V875.261ZM1598.88 869.201C1592.68 865.595 1587.95 860.751 1584.17 853.323L1484.33 904.086C1497.6 930.181 1517.21 951.284 1542.63 966.049L1598.88 869.201ZM1584.23 853.436C1580.41 845.882 1577.47 835.038 1577.47 819.188H1465.47C1465.47 848.981 1471.05 877.815 1484.28 903.973L1584.23 853.436ZM1577.47 819.188C1577.47 803.891 1580.34 793.092 1584.28 785.252L1484.22 734.941C1471.12 761.002 1465.47 789.598 1465.47 819.188H1577.47ZM1584.23 785.362C1588.43 777.049 1593.52 771.797 1599.62 768.057L1541.05 672.591C1516.27 687.79 1497.31 709.053 1484.28 734.831L1584.23 785.362ZM1599.83 767.926C1605.16 764.622 1612.76 761.977 1624.73 761.977V649.977C1595.05 649.977 1566.37 656.897 1540.84 672.721L1599.83 767.926ZM1624.73 761.977C1632.02 761.977 1638.17 763.135 1643.6 765.115L1682.01 659.907C1663.57 653.176 1644.34 649.977 1624.73 649.977V761.977ZM1644.1 765.296C1648.39 766.816 1652.02 769.061 1655.44 772.406L1733.8 692.389C1718.85 677.742 1701.27 666.729 1681.51 659.727L1644.1 765.296ZM1655.64 772.606C1658.21 775.095 1661.33 779.277 1664.16 786.708L1768.83 746.837C1761.05 726.428 1749.59 707.693 1733.6 692.189L1655.64 772.606ZM1664.21 786.828C1666.46 792.687 1668.45 802.028 1668.45 816.205H1780.45C1780.45 792.124 1777.14 768.51 1768.78 746.718L1664.21 786.828ZM1668.45 816.205V831.972H1780.45V816.205H1668.45ZM1724.45 775.972H1545.62V887.972H1724.45V775.972ZM1601.62 831.972V797.312H1489.62V831.972H1601.62ZM1545.62 853.312H1675.16V741.312H1545.62V853.312ZM1731.16 796.774C1730.99 778.961 1727.05 761.003 1717.98 744.304L1619.56 797.765C1619.42 797.506 1619.31 797.256 1619.22 797.033C1619.14 796.812 1619.09 796.657 1619.08 796.592C1619.06 796.529 1619.08 796.584 1619.1 796.78C1619.13 796.978 1619.16 797.328 1619.16 797.851L1731.16 796.774ZM1718.11 744.556C1709.2 727.944 1696.27 714.303 1679.93 704.583L1622.66 800.837C1622.17 800.54 1621.46 800.022 1620.75 799.273C1620.04 798.529 1619.61 797.866 1619.42 797.512L1718.11 744.556ZM1680.2 704.745C1662.91 694.325 1644 690.034 1625.44 690.034V802.034C1626.14 802.034 1626.01 802.111 1625.29 801.924C1624.53 801.727 1623.49 801.334 1622.39 800.675L1680.2 704.745ZM1625.44 690.034C1605.43 690.034 1585.44 695.043 1567.46 706.599L1628.03 800.811C1627.2 801.34 1626.32 801.716 1625.58 801.921C1624.88 802.114 1624.75 802.034 1625.44 802.034V690.034ZM1567.86 706.344C1551.81 716.473 1538.91 730.231 1529.87 746.974L1628.41 800.208C1628.42 800.176 1628.4 800.226 1628.32 800.332C1628.25 800.439 1628.14 800.568 1628.02 800.702C1627.89 800.837 1627.78 800.942 1627.69 801.015C1627.6 801.088 1627.57 801.101 1627.63 801.065L1567.86 706.344ZM1529.76 747.178C1520.9 763.734 1516.64 781.632 1516.46 799.894L1628.46 800.981C1628.46 800.592 1628.49 800.326 1628.51 800.167C1628.53 800.01 1628.54 799.935 1628.55 799.925C1628.55 799.916 1628.54 799.936 1628.53 799.972C1628.52 800.008 1628.51 800.021 1628.52 800.003L1529.76 747.178ZM1516.46 800.438V830.693H1628.46V800.438H1516.46ZM1516.46 830.693C1516.46 850.123 1520.02 870.162 1529.54 888.822L1629.3 837.905C1629.54 838.383 1628.46 836.642 1628.46 830.693H1516.46ZM1529.65 889.034C1538.94 907.031 1552.73 922.079 1570.8 932.554L1626.96 835.651C1627.44 835.929 1628.05 836.387 1628.6 836.976C1629.14 837.549 1629.29 837.893 1629.19 837.693L1529.65 889.034ZM1571.22 932.792C1589.29 943.06 1608.89 947.205 1628.14 947.205V835.205C1626.51 835.205 1625.75 835.032 1625.66 835.009C1625.61 834.997 1625.69 835.013 1625.87 835.084C1626.05 835.156 1626.28 835.264 1626.55 835.413L1571.22 932.792ZM1628.14 947.205C1640.81 947.205 1653.85 945.44 1666.66 941.038L1630.25 835.121C1630.94 834.886 1630.44 835.205 1628.14 835.205V947.205ZM1667.4 940.78C1680.23 936.168 1692.16 929.117 1702.49 919.444L1625.95 837.681C1626.6 837.073 1627.31 836.545 1628 836.124C1628.7 835.706 1629.23 835.481 1629.52 835.379L1667.4 940.78ZM1702.49 919.444C1713.78 908.875 1721.79 896.168 1726.84 882.477L1621.77 843.683C1621.99 843.094 1622.42 842.143 1623.16 841.002C1623.91 839.847 1624.85 838.708 1625.95 837.681L1702.49 919.444ZM1668.05 918.729L1716.06 924.127L1728.58 812.828L1680.56 807.43L1668.05 918.729ZM1667.85 855.47C1666.94 859.291 1665.48 861.907 1663.37 864.254L1746.61 939.178C1761.55 922.585 1771.64 903.042 1776.79 881.485L1667.85 855.47ZM1663.34 864.277C1661.38 866.46 1658.11 869.101 1652 871.519L1693.21 975.663C1713.42 967.664 1731.74 955.722 1746.64 939.155L1663.34 864.277ZM1652.32 871.392C1646.78 873.545 1638.8 875.261 1627.43 875.261V987.261C1649.97 987.261 1672.1 983.864 1692.88 975.79L1652.32 871.392ZM1807.01 916.915L1777.65 964.598L1777.71 964.637L1777.78 964.677L1807.01 916.915ZM1771.08 877.284L1720.82 901.991L1720.9 902.16L1720.99 902.328L1771.08 877.284ZM1771.36 760.097L1821.39 785.252L1821.42 785.196L1821.45 785.141L1771.36 760.097ZM1807.44 720.324L1836.59 768.136L1836.64 768.111L1836.68 768.086L1807.44 720.324ZM1909.86 715.778L1885.66 766.28L1885.87 766.381L1886.08 766.48L1909.86 715.778ZM1942.67 743.193L1896.53 774.934L1896.59 775.021L1896.65 775.108L1942.67 743.193ZM1956.59 784.386V840.386H2016.78L2012.44 780.349L1956.59 784.386ZM1907.44 784.386L1852.42 794.796L1861.04 840.386H1907.44V784.386ZM1893.24 758.108L1854.42 798.475L1854.69 798.728L1854.95 798.978L1893.24 758.108ZM1835.85 755.977L1868.04 801.803L1868.22 801.675L1868.4 801.546L1835.85 755.977ZM1817.24 780.125L1765.67 758.29L1765.59 758.488L1765.51 758.686L1817.24 780.125ZM1817.24 856.261L1765.37 877.375L1765.41 877.456L1765.44 877.537L1817.24 856.261ZM1835.57 880.835L1802.4 925.959L1802.71 926.184L1803.02 926.404L1835.57 880.835ZM1883.86 885.097L1907.94 935.657L1908.11 935.577L1908.27 935.496L1883.86 885.097ZM1899.06 872.455L1854.07 839.103L1854.07 839.103L1899.06 872.455ZM1907.44 852.426V796.426H1861.2L1852.45 841.826L1907.44 852.426ZM1956.59 852.426L2012.41 856.878L2017.23 796.426H1956.59V852.426ZM1942.95 893.477L1989.6 924.454L1989.66 924.369L1989.72 924.283L1942.95 893.477ZM1910.85 921.318L1935.47 971.615L1935.61 971.546L1935.75 971.476L1910.85 921.318ZM1863.12 875.261C1849.69 875.261 1841.54 872.388 1836.25 869.152L1777.78 964.677C1803.74 980.57 1832.99 987.261 1863.12 987.261V875.261ZM1836.38 869.232C1830.04 865.325 1825.09 860.094 1821.16 852.24L1720.99 902.328C1733.92 928.187 1752.93 949.376 1777.65 964.598L1836.38 869.232ZM1821.33 852.578C1817.36 844.507 1814.58 833.695 1814.58 818.761H1702.58C1702.58 847.957 1708.12 876.16 1720.82 901.991L1821.33 852.578ZM1814.58 818.761C1814.58 803.873 1817.4 793.187 1821.39 785.252L1721.33 734.941C1708.27 760.908 1702.58 789.331 1702.58 818.761H1814.58ZM1821.45 785.141C1825.5 777.029 1830.48 771.865 1836.59 768.136L1778.29 672.511C1753.34 687.722 1734.26 709.073 1721.27 735.053L1821.45 785.141ZM1836.68 768.086C1842.15 764.736 1850.14 761.977 1862.84 761.977V649.977C1832.92 649.977 1803.98 656.783 1778.2 672.562L1836.68 768.086ZM1862.84 761.977C1873.6 761.977 1880.76 763.934 1885.66 766.28L1934.05 665.277C1911.68 654.554 1887.5 649.977 1862.84 649.977V761.977ZM1886.08 766.48C1891.32 768.941 1894.34 771.751 1896.53 774.934L1988.8 711.452C1974.71 690.961 1955.85 675.495 1933.63 665.077L1886.08 766.48ZM1896.65 775.108C1898.5 777.776 1900.24 781.651 1900.73 788.424L2012.44 780.349C2010.66 755.682 2003.12 732.095 1988.68 711.279L1896.65 775.108ZM1956.59 728.386H1907.44V840.386H1956.59V728.386ZM1962.46 773.976C1958.37 752.337 1948.07 732.737 1931.52 717.238L1854.95 798.978C1854.42 798.48 1853.72 797.646 1853.13 796.562C1852.56 795.501 1852.42 794.79 1852.42 794.796L1962.46 773.976ZM1932.05 717.741C1912.11 698.571 1887.19 691.455 1863.55 691.455V803.455C1864.44 803.455 1863.46 803.581 1861.36 802.827C1859.08 802.008 1856.57 800.538 1854.42 798.475L1932.05 717.741ZM1863.55 691.455C1842.29 691.455 1821.48 697.422 1803.3 710.408L1868.4 801.546C1867.54 802.161 1866.41 802.738 1865.21 803.109C1864.04 803.468 1863.39 803.455 1863.55 803.455V691.455ZM1803.66 710.152C1785.73 722.748 1773.49 739.833 1765.67 758.29L1868.81 801.96C1869.39 800.578 1869.74 800.187 1869.59 800.386C1869.51 800.483 1869.34 800.691 1869.06 800.962C1868.78 801.235 1868.43 801.525 1868.04 801.803L1803.66 710.152ZM1765.51 758.686C1757.65 777.654 1754.71 797.913 1754.71 817.909H1866.71C1866.71 808.549 1868.12 803.619 1868.98 801.564L1765.51 758.686ZM1754.71 817.909C1754.71 838.031 1757.63 858.349 1765.37 877.375L1869.11 835.147C1868.14 832.772 1866.71 827.522 1866.71 817.909H1754.71ZM1765.44 877.537C1773.01 895.963 1784.9 913.097 1802.4 925.959L1868.73 835.711C1869.07 835.965 1869.37 836.221 1869.6 836.452C1869.83 836.681 1869.95 836.84 1869.98 836.884C1870.05 836.975 1869.65 836.469 1869.04 834.986L1765.44 877.537ZM1803.02 926.404C1821.37 939.515 1842.34 945.358 1863.55 945.358V833.358C1863.19 833.358 1863.73 833.318 1864.84 833.657C1866 834.01 1867.16 834.587 1868.11 835.266L1803.02 926.404ZM1863.55 945.358C1878.23 945.358 1893.42 942.569 1907.94 935.657L1859.78 834.536C1861 833.96 1862.05 833.645 1862.81 833.486C1863.54 833.332 1863.83 833.358 1863.55 833.358V945.358ZM1908.27 935.496C1922.59 928.558 1934.68 918.442 1944.05 905.806L1854.07 839.103C1854.6 838.396 1855.37 837.536 1856.4 836.681C1857.43 835.824 1858.49 835.164 1859.45 834.698L1908.27 935.496ZM1944.05 905.806C1953.9 892.517 1959.59 877.725 1962.43 863.026L1852.45 841.826C1852.35 842.372 1852.31 842.273 1852.55 841.712C1852.79 841.126 1853.27 840.191 1854.07 839.103L1944.05 905.806ZM1907.44 908.426H1956.59V796.426H1907.44V908.426ZM1900.77 847.974C1900.22 854.812 1898.43 859.272 1896.19 862.671L1989.72 924.283C2003.2 903.819 2010.49 880.912 2012.41 856.878L1900.77 847.974ZM1896.3 862.5C1894.23 865.618 1891.26 868.52 1885.95 871.16L1935.75 971.476C1957.52 960.67 1975.95 945.011 1989.6 924.454L1896.3 862.5ZM1886.23 871.021C1881.81 873.185 1874.65 875.261 1863.12 875.261V987.261C1888.15 987.261 1912.81 982.709 1935.47 971.615L1886.23 871.021ZM2050.23 927V983H2106.23V927H2050.23ZM1998.81 927H1942.81V983H1998.81V927ZM1998.81 636.091V580.091H1942.81V636.091H1998.81ZM2049.1 636.091H2105.1V580.091H2049.1V636.091ZM2049.1 745.892H1993.1V801.892H2049.1V745.892ZM2051.65 745.892V801.892H2089.03L2103.37 767.374L2051.65 745.892ZM2075.37 716.773L2106.34 763.431L2106.39 763.399L2106.44 763.368L2075.37 716.773ZM2156.2 715.494L2183.67 666.697L2183.67 666.697L2156.2 715.494ZM2182.33 743.335L2132.32 768.534L2132.4 768.688L2132.48 768.842L2182.33 743.335ZM2191.71 927V983H2247.71V927H2191.71ZM2140.29 927H2084.29V983H2140.29V927ZM2128.92 761.801L2087.47 799.447L2087.69 799.696L2087.92 799.943L2128.92 761.801ZM2072.96 755.409L2099.82 804.546L2099.93 804.485L2100.05 804.423L2072.96 755.409ZM2056.2 772.312L2007.16 745.277L2007.02 745.519L2006.89 745.763L2056.2 772.312ZM1994.23 799.159V927H2106.23V799.159H1994.23ZM2050.23 871H1998.81V983H2050.23V871ZM2054.81 927V636.091H1942.81V927H2054.81ZM1998.81 692.091H2049.1V580.091H1998.81V692.091ZM1993.1 636.091V745.892H2105.1V636.091H1993.1ZM2049.1 801.892H2051.65V689.892H2049.1V801.892ZM2103.37 767.374C2104.39 764.916 2105.27 764.144 2106.34 763.431L2044.41 670.114C2024.08 683.606 2009.14 702.247 1999.94 724.41L2103.37 767.374ZM2106.44 763.368C2105.74 763.833 2107.83 761.977 2116.57 761.977V649.977C2091.97 649.977 2066.6 655.319 2044.31 670.178L2106.44 763.368ZM2116.57 761.977C2123.76 761.977 2127.18 763.422 2128.72 764.292L2183.67 666.697C2162.68 654.877 2139.68 649.977 2116.57 649.977V761.977ZM2128.72 764.292C2129.73 764.859 2130.87 765.643 2132.32 768.534L2232.34 718.136C2221.49 696.596 2205.2 678.819 2183.67 666.697L2128.72 764.292ZM2132.48 768.842C2133.71 771.244 2135.71 776.895 2135.71 788.08H2247.71C2247.71 764.037 2243.46 739.858 2232.19 717.829L2132.48 768.842ZM2135.71 788.08V927H2247.71V788.08H2135.71ZM2191.71 871H2140.29V983H2191.71V871ZM2196.29 927V796.034H2084.29V927H2196.29ZM2196.29 796.034C2196.29 771.843 2189.9 745.125 2169.93 723.659L2087.92 799.943C2086.93 798.879 2086.11 797.754 2085.48 796.658C2084.85 795.574 2084.49 794.679 2084.3 794.11C2083.94 793.029 2084.29 793.415 2084.29 796.034H2196.29ZM2170.38 724.155C2150.03 701.74 2123.02 693.443 2097.39 693.443V805.443C2098.53 805.443 2097.41 805.617 2095 804.672C2092.34 803.632 2089.61 801.809 2087.47 799.447L2170.38 724.155ZM2097.39 693.443C2079.85 693.443 2062.21 697.365 2045.87 706.396L2100.05 804.423C2099.22 804.88 2098.4 805.177 2097.75 805.336C2097.12 805.489 2096.95 805.443 2097.39 805.443V693.443ZM2046.1 706.272C2029.25 715.484 2016.14 728.977 2007.16 745.277L2105.24 799.348C2104.93 799.911 2104.29 800.888 2103.21 801.977C2102.11 803.079 2100.92 803.945 2099.82 804.546L2046.1 706.272ZM2006.89 745.763C1997.55 763.12 1994.23 781.682 1994.23 799.159H2106.23C2106.23 797.407 2106.4 796.667 2106.39 796.712C2106.38 796.743 2106.33 796.971 2106.19 797.356C2106.05 797.745 2105.83 798.26 2105.5 798.862L2006.89 745.763ZM2388.87 740.636L2337.11 762.015L2351.41 796.636H2388.87V740.636ZM2345.69 636.091V580.091H2261.97L2293.93 657.469L2345.69 636.091ZM2367.42 636.091L2419.58 615.704L2405.66 580.091H2367.42V636.091ZM2395.4 707.682L2343.24 728.069L2395.27 861.169L2447.52 728.158L2395.4 707.682ZM2423.53 636.091V580.091H2385.36L2371.4 615.614L2423.53 636.091ZM2445.26 636.091L2496.99 657.529L2529.08 580.091H2445.26V636.091ZM2401.94 740.636V796.636H2439.35L2453.67 762.075L2401.94 740.636ZM2339.01 740.636H2283.01V796.636H2339.01V740.636ZM2339.01 636.091V580.091H2283.01V636.091H2339.01ZM2362.73 636.091H2418.73V580.091H2362.73V636.091ZM2362.73 740.636V796.636H2418.73V740.636H2362.73ZM2428.21 740.636H2372.21V796.636H2428.21V740.636ZM2428.21 636.091V580.091H2372.21V636.091H2428.21ZM2451.79 636.091H2507.79V580.091H2451.79V636.091ZM2451.79 740.636V796.636H2507.79V740.636H2451.79ZM2265.43 740.636H2209.43V796.636H2265.43V740.636ZM2265.43 645.182V589.182H2209.43V645.182H2265.43ZM2289.01 645.182H2345.01V589.182H2289.01V645.182ZM2289.01 740.636V796.636H2345.01V740.636H2289.01ZM2233.61 655.835H2177.61V711.835H2233.61V655.835ZM2233.61 636.091V580.091H2177.61V636.091H2233.61ZM2320.83 636.091H2376.83V580.091H2320.83V636.091ZM2320.83 655.835V711.835H2376.83V655.835H2320.83ZM2440.63 719.258L2397.44 614.712L2293.93 657.469L2337.11 762.015L2440.63 719.258ZM2345.69 692.091H2367.42V580.091H2345.69V692.091ZM2315.26 656.478L2343.24 728.069L2447.56 687.295L2419.58 615.704L2315.26 656.478ZM2447.52 728.158L2475.65 656.567L2371.4 615.614L2343.28 687.205L2447.52 728.158ZM2423.53 692.091H2445.26V580.091H2423.53V692.091ZM2393.53 614.652L2350.2 719.198L2453.67 762.075L2496.99 657.529L2393.53 614.652ZM2401.94 684.636H2388.87V796.636H2401.94V684.636ZM2395.01 740.636V636.091H2283.01V740.636H2395.01ZM2339.01 692.091H2362.73V580.091H2339.01V692.091ZM2306.73 636.091V740.636H2418.73V636.091H2306.73ZM2362.73 684.636H2339.01V796.636H2362.73V684.636ZM2484.21 740.636V636.091H2372.21V740.636H2484.21ZM2428.21 692.091H2451.79V580.091H2428.21V692.091ZM2395.79 636.091V740.636H2507.79V636.091H2395.79ZM2451.79 684.636H2428.21V796.636H2451.79V684.636ZM2321.43 740.636V645.182H2209.43V740.636H2321.43ZM2265.43 701.182H2289.01V589.182H2265.43V701.182ZM2233.01 645.182V740.636H2345.01V645.182H2233.01ZM2289.01 684.636H2265.43V796.636H2289.01V684.636ZM2289.61 655.835V636.091H2177.61V655.835H2289.61ZM2233.61 692.091H2320.83V580.091H2233.61V692.091ZM2264.83 636.091V655.835H2376.83V636.091H2264.83ZM2320.83 599.835H2233.61V711.835H2320.83V599.835Z" fill="white" mask="url(#path-7-outside-1_3_18)"/>
</g>
<defs>
<filter id="filter0_d_3_18" x="5.64453" y="9.64429" width="1068.73" height="1068.73" filterUnits="userSpaceOnUse" color-interpolation-filters="sRGB">
<feFlood flood-opacity="0" result="BackgroundImageFix"/>
<feColorMatrix in="SourceAlpha" type="matrix" values="0 0 0 0 0 0 0 0 0 0 0 0 0 0 0 0 0 0 127 0" result="hardAlpha"/>
<feOffset dy="4"/>
<feGaussianBlur stdDeviation="25"/>
<feComposite in2="hardAlpha" operator="out"/>
<feColorMatrix type="matrix" values="0 0 0 0 0 0 0 0 0 0 0 0 0 0 0 0 0 0 1 0"/>
<feBlend mode="normal" in2="BackgroundImageFix" result="effect1_dropShadow_3_18"/>
<feBlend mode="normal" in="SourceGraphic" in2="effect1_dropShadow_3_18" result="shape"/>
</filter>
<clipPath id="clip0_3_18">
<rect width="3000" height="1080" fill="white"/>
</clipPath>
</defs>
</svg>
