<svg width="3000" height="1080" viewBox="0 0 3000 1080" fill="none" xmlns="http://www.w3.org/2000/svg">
<g clip-path="url(#clip0_3_34)">
<rect width="3000" height="1080" fill="black"/>
<g filter="url(#filter0_d_3_34)">
<ellipse cx="875.556" cy="651.86" rx="148.823" ry="148.823" transform="rotate(135 875.556 651.86)" fill="#00E800"/>
<ellipse cx="651.86" cy="428.163" rx="148.823" ry="148.823" transform="rotate(135 651.86 428.163)" fill="#FFB700"/>
<ellipse cx="651.86" cy="875.556" rx="148.823" ry="148.823" transform="rotate(135 651.86 875.556)" fill="#00E800"/>
<ellipse cx="428.164" cy="651.86" rx="148.823" ry="148.823" transform="rotate(135 428.164 651.86)" fill="#FFB700"/>
<ellipse cx="428.164" cy="204.467" rx="148.823" ry="148.823" transform="rotate(135 428.164 204.467)" fill="#FF0000"/>
<ellipse cx="204.467" cy="428.163" rx="148.823" ry="148.823" transform="rotate(135 204.467 428.163)" fill="#FF0000"/>
</g>
<path d="M1300.69 443V152.091H1489.9V196.267H1353.39V275.244H1480.1V319.42H1353.39V398.824H1491.03V443H1300.69ZM1680.45 351.239V224.818H1731.87V443H1682.01V404.222H1679.74C1674.82 416.437 1666.72 426.428 1655.45 434.193C1644.28 441.958 1630.5 445.841 1614.12 445.841C1599.82 445.841 1587.18 442.669 1576.19 436.324C1565.3 429.884 1556.78 420.557 1550.62 408.341C1544.47 396.03 1541.39 381.163 1541.39 363.739V224.818H1592.81V355.784C1592.81 369.61 1596.6 380.595 1604.17 388.739C1611.75 396.883 1621.69 400.955 1634 400.955C1641.58 400.955 1648.92 399.108 1656.02 395.415C1663.12 391.722 1668.95 386.229 1673.49 378.938C1678.13 371.551 1680.45 362.318 1680.45 351.239ZM1957.19 282.489L1910.32 287.602C1908.99 282.867 1906.67 278.417 1903.36 274.25C1900.14 270.083 1895.78 266.722 1890.29 264.165C1884.8 261.608 1878.07 260.33 1870.12 260.33C1859.42 260.33 1850.42 262.65 1843.13 267.29C1835.93 271.93 1832.38 277.943 1832.48 285.33C1832.38 291.674 1834.7 296.835 1839.44 300.812C1844.27 304.79 1852.22 308.057 1863.3 310.614L1900.52 318.568C1921.16 323.019 1936.5 330.074 1946.54 339.733C1956.67 349.392 1961.78 362.034 1961.88 377.659C1961.78 391.39 1957.76 403.511 1949.81 414.023C1941.95 424.439 1931.01 432.583 1916.99 438.455C1902.98 444.326 1886.88 447.261 1868.7 447.261C1841.99 447.261 1820.5 441.674 1804.21 430.5C1787.92 419.231 1778.21 403.559 1775.09 383.483L1825.23 378.653C1827.5 388.502 1832.33 395.936 1839.72 400.955C1847.11 405.973 1856.72 408.483 1868.56 408.483C1880.77 408.483 1890.57 405.973 1897.96 400.955C1905.44 395.936 1909.18 389.733 1909.18 382.347C1909.18 376.097 1906.77 370.936 1901.94 366.864C1897.2 362.792 1889.81 359.667 1879.78 357.489L1842.56 349.676C1821.63 345.32 1806.15 337.981 1796.11 327.659C1786.07 317.242 1781.1 304.08 1781.2 288.17C1781.1 274.723 1784.75 263.076 1792.13 253.227C1799.62 243.284 1809.99 235.614 1823.24 230.216C1836.6 224.723 1851.98 221.977 1869.41 221.977C1894.98 221.977 1915.1 227.422 1929.78 238.312C1944.55 249.203 1953.69 263.928 1957.19 282.489ZM2051.15 374.534L2051.01 312.46H2059.25L2137.66 224.818H2197.75L2101.3 332.205H2090.64L2051.15 374.534ZM2004.28 443V152.091H2055.7V443H2004.28ZM2141.21 443L2070.19 343.71L2104.85 307.489L2202.72 443H2141.21ZM2294.8 447.403C2280.97 447.403 2268.52 444.941 2257.44 440.017C2246.46 434.998 2237.74 427.612 2231.3 417.858C2224.96 408.104 2221.79 396.078 2221.79 381.778C2221.79 369.468 2224.06 359.288 2228.61 351.239C2233.15 343.189 2239.35 336.75 2247.21 331.92C2255.07 327.091 2263.93 323.445 2273.78 320.983C2283.72 318.426 2293.99 316.58 2304.6 315.443C2317.38 314.117 2327.75 312.934 2335.71 311.892C2343.66 310.756 2349.44 309.051 2353.04 306.778C2356.73 304.411 2358.58 300.765 2358.58 295.841V294.989C2358.58 284.288 2355.4 276.002 2349.06 270.131C2342.71 264.259 2333.58 261.324 2321.64 261.324C2309.05 261.324 2299.06 264.07 2291.67 269.562C2284.38 275.055 2279.46 281.542 2276.9 289.023L2228.89 282.205C2232.68 268.947 2238.93 257.867 2247.64 248.966C2256.35 239.97 2267 233.246 2279.6 228.795C2292.19 224.25 2306.11 221.977 2321.36 221.977C2331.87 221.977 2342.34 223.208 2352.75 225.67C2363.17 228.133 2372.69 232.205 2381.3 237.886C2389.92 243.473 2396.83 251.097 2402.04 260.756C2407.35 270.415 2410 282.489 2410 296.977V443H2360.57V413.028H2358.86C2355.74 419.089 2351.33 424.771 2345.65 430.074C2340.06 435.282 2333.01 439.496 2324.49 442.716C2316.06 445.841 2306.16 447.403 2294.8 447.403ZM2308.15 409.619C2318.47 409.619 2327.42 407.583 2335 403.511C2342.57 399.345 2348.4 393.852 2352.47 387.034C2356.64 380.216 2358.72 372.782 2358.72 364.733V339.023C2357.11 340.348 2354.36 341.58 2350.48 342.716C2346.69 343.852 2342.43 344.847 2337.7 345.699C2332.96 346.551 2328.27 347.309 2323.63 347.972C2318.99 348.634 2314.97 349.203 2311.56 349.676C2303.89 350.718 2297.02 352.422 2290.96 354.79C2284.9 357.157 2280.12 360.472 2276.62 364.733C2273.11 368.9 2271.36 374.297 2271.36 380.926C2271.36 390.396 2274.82 397.545 2281.73 402.375C2288.64 407.205 2297.45 409.619 2308.15 409.619ZM2542.67 446.835C2525.53 446.835 2510.19 442.432 2496.64 433.625C2483.1 424.818 2472.4 412.034 2464.54 395.273C2456.68 378.511 2452.75 358.152 2452.75 334.193C2452.75 309.951 2456.73 289.496 2464.68 272.83C2472.73 256.068 2483.58 243.426 2497.21 234.903C2510.85 226.286 2526.05 221.977 2542.81 221.977C2555.59 221.977 2566.11 224.155 2574.34 228.511C2582.58 232.773 2589.12 237.934 2593.95 243.994C2598.78 249.96 2602.52 255.595 2605.17 260.898H2607.3V152.091H2658.86V443H2608.29V408.625H2605.17C2602.52 413.928 2598.68 419.562 2593.66 425.528C2588.64 431.4 2582.01 436.419 2573.78 440.585C2565.54 444.752 2555.17 446.835 2542.67 446.835ZM2557.01 404.648C2567.9 404.648 2577.18 401.712 2584.86 395.841C2592.53 389.875 2598.35 381.589 2602.33 370.983C2606.3 360.377 2608.29 348.019 2608.29 333.909C2608.29 319.799 2606.3 307.536 2602.33 297.119C2598.44 286.703 2592.67 278.606 2585 272.83C2577.42 267.053 2568.09 264.165 2557.01 264.165C2545.56 264.165 2535.99 267.148 2528.32 273.114C2520.65 279.08 2514.87 287.318 2510.99 297.83C2507.11 308.341 2505.17 320.367 2505.17 333.909C2505.17 347.545 2507.11 359.714 2510.99 370.415C2514.97 381.021 2520.79 389.402 2528.46 395.557C2536.23 401.617 2545.75 404.648 2557.01 404.648ZM2713.65 443V224.818H2765.08V443H2713.65ZM2739.51 193.852C2731.36 193.852 2724.36 191.153 2718.48 185.756C2712.61 180.263 2709.68 173.682 2709.68 166.011C2709.68 158.246 2712.61 151.665 2718.48 146.267C2724.36 140.775 2731.36 138.028 2739.51 138.028C2747.75 138.028 2754.75 140.775 2760.53 146.267C2766.4 151.665 2769.34 158.246 2769.34 166.011C2769.34 173.682 2766.4 180.263 2760.53 185.756C2754.75 191.153 2747.75 193.852 2739.51 193.852ZM1287.91 680.267V636.091H1520.01V680.267H1430.1V927H1377.82V680.267H1287.91ZM1627.43 931.261C1605.56 931.261 1586.67 926.716 1570.76 917.625C1554.94 908.439 1542.77 895.466 1534.25 878.705C1525.73 861.848 1521.47 842.009 1521.47 819.188C1521.47 796.744 1525.73 777.047 1534.25 760.097C1542.87 743.051 1554.9 729.794 1570.33 720.324C1585.77 710.759 1603.9 705.977 1624.73 705.977C1638.18 705.977 1650.87 708.155 1662.8 712.511C1674.83 716.773 1685.44 723.402 1694.62 732.398C1703.9 741.394 1711.19 752.852 1716.5 766.773C1721.8 780.598 1724.45 797.076 1724.45 816.205V831.972H1545.62V797.312H1675.16C1675.07 787.464 1672.94 778.705 1668.77 771.034C1664.6 763.269 1658.78 757.161 1651.3 752.71C1643.91 748.259 1635.29 746.034 1625.44 746.034C1614.93 746.034 1605.7 748.591 1597.75 753.705C1589.79 758.723 1583.59 765.352 1579.14 773.591C1574.78 781.735 1572.56 790.684 1572.46 800.438V830.693C1572.46 843.383 1574.78 854.273 1579.42 863.364C1584.06 872.36 1590.55 879.273 1598.88 884.102C1607.22 888.837 1616.97 891.205 1628.14 891.205C1635.62 891.205 1642.4 890.163 1648.46 888.08C1654.52 885.902 1659.77 882.729 1664.22 878.562C1668.67 874.396 1672.04 869.235 1674.31 863.08L1722.32 868.477C1719.29 881.167 1713.51 892.246 1704.99 901.716C1696.56 911.091 1685.77 918.383 1672.6 923.591C1659.44 928.705 1644.38 931.261 1627.43 931.261ZM1863.12 931.261C1841.34 931.261 1822.64 926.479 1807.01 916.915C1791.48 907.35 1779.5 894.14 1771.08 877.284C1762.74 860.333 1758.58 840.826 1758.58 818.761C1758.58 796.602 1762.84 777.047 1771.36 760.097C1779.88 743.051 1791.91 729.794 1807.44 720.324C1823.07 710.759 1841.53 705.977 1862.84 705.977C1880.55 705.977 1896.22 709.244 1909.86 715.778C1923.59 722.218 1934.52 731.356 1942.67 743.193C1950.81 754.936 1955.45 768.667 1956.59 784.386H1907.44C1905.45 773.875 1900.72 765.116 1893.24 758.108C1885.85 751.006 1875.95 747.455 1863.55 747.455C1853.04 747.455 1843.8 750.295 1835.85 755.977C1827.89 761.564 1821.69 769.614 1817.24 780.125C1812.89 790.636 1810.71 803.231 1810.71 817.909C1810.71 832.777 1812.89 845.561 1817.24 856.261C1821.6 866.867 1827.71 875.059 1835.57 880.835C1843.52 886.517 1852.85 889.358 1863.55 889.358C1871.12 889.358 1877.89 887.937 1883.86 885.097C1889.92 882.161 1894.99 877.947 1899.06 872.455C1903.13 866.962 1905.93 860.286 1907.44 852.426H1956.59C1955.36 867.862 1950.81 881.545 1942.95 893.477C1935.09 905.314 1924.39 914.595 1910.85 921.318C1897.31 927.947 1881.4 931.261 1863.12 931.261ZM2050.23 799.159V927H1998.81V636.091H2049.1V745.892H2051.65C2056.77 733.581 2064.67 723.875 2075.37 716.773C2086.17 709.576 2099.9 705.977 2116.57 705.977C2131.72 705.977 2144.93 709.15 2156.2 715.494C2167.47 721.839 2176.18 731.119 2182.33 743.335C2188.58 755.551 2191.71 770.466 2191.71 788.08V927H2140.29V796.034C2140.29 781.356 2136.5 769.945 2128.92 761.801C2121.44 753.562 2110.93 749.443 2097.39 749.443C2088.3 749.443 2080.16 751.432 2072.96 755.409C2065.86 759.292 2060.27 764.926 2056.2 772.312C2052.22 779.699 2050.23 788.648 2050.23 799.159ZM2388.87 740.636L2345.69 636.091H2367.42L2395.4 707.682L2423.53 636.091H2445.26L2401.94 740.636H2388.87ZM2339.01 740.636V636.091H2362.73V740.636H2339.01ZM2428.21 740.636V636.091H2451.79V740.636H2428.21ZM2265.43 740.636V645.182H2289.01V740.636H2265.43ZM2233.61 655.835V636.091H2320.83V655.835H2233.61Z" fill="white"/>
</g>
<defs>
<filter id="filter0_d_3_34" x="5.64453" y="9.64429" width="1068.73" height="1068.73" filterUnits="userSpaceOnUse" color-interpolation-filters="sRGB">
<feFlood flood-opacity="0" result="BackgroundImageFix"/>
<feColorMatrix in="SourceAlpha" type="matrix" values="0 0 0 0 0 0 0 0 0 0 0 0 0 0 0 0 0 0 127 0" result="hardAlpha"/>
<feOffset dy="4"/>
<feGaussianBlur stdDeviation="25"/>
<feComposite in2="hardAlpha" operator="out"/>
<feColorMatrix type="matrix" values="0 0 0 0 0 0 0 0 0 0 0 0 0 0 0 0 0 0 1 0"/>
<feBlend mode="normal" in2="BackgroundImageFix" result="effect1_dropShadow_3_34"/>
<feBlend mode="normal" in="SourceGraphic" in2="effect1_dropShadow_3_34" result="shape"/>
</filter>
<clipPath id="clip0_3_34">
<rect width="3000" height="1080" fill="white"/>
</clipPath>
</defs>
</svg>
